<svg id="Capa_1" data-name="Capa 1" xmlns="http://www.w3.org/2000/svg" viewBox="0 0 800 480.54"><defs><style>.cls-1{fill:#41b7a8;}.cls-2{fill:#3d998c;}.cls-3{fill:#c8bbeb;}.cls-4{fill:#8e6ee6;}.cls-5{fill:#5e35d1;}.cls-6{fill:#391f82;}.cls-7{fill:#f5f5f5;}.cls-8{fill:none;stroke:#fff;stroke-linecap:round;stroke-linejoin:round;stroke-width:10px;}</style></defs><polygon class="cls-1" points="354.2 367.26 287.61 352.31 280.84 330.58 354.2 293.9 427.56 330.58 419.92 352.74 354.2 367.26"/><polygon class="cls-1" points="354.2 468.75 280.84 432.06 280.84 330.58 354.2 367.26 372.54 394.25 372.54 442.39 354.2 468.75"/><polygon class="cls-2" points="427.56 432.06 354.2 468.75 354.2 367.26 427.56 330.58 427.56 432.06"/><polygon class="cls-3" points="500.93 367.26 434.33 352.31 427.56 330.58 500.93 293.9 574.29 330.58 566.65 352.74 500.93 367.26"/><polygon class="cls-3" points="500.93 468.75 427.56 432.06 427.56 330.58 500.93 367.26 519.27 394.25 519.27 442.39 500.93 468.75"/><polygon class="cls-4" points="574.29 432.06 500.93 468.75 500.93 367.26 574.29 330.58 574.29 432.06"/><polygon class="cls-5" points="427.56 229.09 360.97 214.14 354.2 192.41 427.56 155.73 500.93 192.41 493.28 214.58 427.56 229.09"/><polygon class="cls-5" points="427.56 330.58 354.2 293.9 354.2 192.41 427.56 229.09 445.91 255.48 445.91 304.22 427.56 330.58"/><polygon class="cls-6" points="500.93 293.9 427.56 330.58 427.56 229.09 500.93 192.41 500.93 293.9"/><path class="cls-7" d="M265.93,241.15l-13.41,8.07-6.7-6.7-6.7,6.7-13.41-8,0,177.85H266ZM266,419"/><path class="cls-5" d="M245.81,211.24,235,226.88h21.65Zm10.83,15.64"/><path class="cls-1" d="M265.93,240.28l-9.29-13.4H235l-9.28,13.41v.89l13.41,8,6.7-6.7,6.7,6.7,13.41-8.07Zm0,.87"/><path class="cls-1" d="M225.73,419H266v13.41H225.73Zm0,13.4"/><path class="cls-7" d="M260.06,456.19A20.1,20.1,0,0,0,266,442v-9.54H225.73V442a20.11,20.11,0,0,0,34.33,14.21Zm0,0"/><line class="cls-8" x1="247.38" y1="383.6" x2="247.07" y2="283.94"/><path class="cls-4" d="M491.67,304.54a232.08,232.08,0,0,1-95.05-23.47C322.9,246.56,278.71,188.89,296,149.77A49.91,49.91,0,0,1,325.58,124c32.76-12.3,83.7-5.63,132.93,17.4,73.7,34.51,117.91,92.17,100.63,131.29a49.91,49.91,0,0,1-29.57,25.76,108.83,108.83,0,0,1-37.9,6.09ZM363.6,127.18a99.65,99.65,0,0,0-34.74,5.54,40.34,40.34,0,0,0-24.33,20.82c-15,33.87,28.11,87.29,96.05,119.08,47,22,95.21,28.55,125.71,17.11a40.36,40.36,0,0,0,24.32-20.81c15-33.87-28.11-87.29-96.05-119.09-31.73-14.84-64-22.65-91-22.65Zm0,0"/><path class="cls-3" d="M293.74,266.9a4.63,4.63,0,0,1-4.36-3c-6.7-17.6-1.41-39.65,14.92-62.1a193.81,193.81,0,0,1,48.34-45.35l.46-.36a276.7,276.7,0,0,1,67.21-33.17,218.69,218.69,0,0,1,54.13-11.24c24.5-1.72,45.14,1.93,59.7,10.58a4.66,4.66,0,1,1-4.76,8c-12.92-7.67-31.69-10.9-54.29-9.29a209.85,209.85,0,0,0-51.84,10.79,267.25,267.25,0,0,0-28.45,11.37,261.13,261.13,0,0,0-36,20.35,5.45,5.45,0,0,1-.47.37,184.79,184.79,0,0,0-46.49,43.4C297.44,227.1,292.56,246,298.1,260.59a4.68,4.68,0,0,1-2.7,6,4.5,4.5,0,0,1-1.66.29Zm0,0"/><path class="cls-3" d="M357.56,297.83a94.94,94.94,0,0,1-48-10.92,4.67,4.67,0,0,1,2.18-8.77h.05a4.64,4.64,0,0,1,2.38.66c12.92,7.67,31.68,10.88,54.28,9.3a210.12,210.12,0,0,0,51.84-10.79,264.55,264.55,0,0,0,28.46-11.38,261.65,261.65,0,0,0,36-20.34,2.79,2.79,0,0,1,.47-.36,185,185,0,0,0,46.48-43.41c14.42-19.83,19.3-38.76,13.75-53.31a4.67,4.67,0,1,1,8.72-3.32c6.7,17.6,1.4,39.65-14.92,62.1a193.75,193.75,0,0,1-48.37,45.35,4,4,0,0,1-.46.35,272,272,0,0,1-37.74,21.41,273.47,273.47,0,0,1-29.43,11.77A219.2,219.2,0,0,1,369.1,297.4c-4,.29-7.79.43-11.54.43Zm0,0"/><path class="cls-5" d="M531.88,376.75l-33.8,17.7a9.65,9.65,0,0,1-13-4.06L475,371.21a9.65,9.65,0,0,1,4.07-13l33.8-17.71A40.77,40.77,0,0,0,486.05,334a42.17,42.17,0,0,0-27.76,14.54,40.74,40.74,0,0,0-10,25.74L325.41,438.7a21.21,21.21,0,0,0-9.12,8.89,20.48,20.48,0,0,0,15.62,29.81,21.14,21.14,0,0,0,12.5-2.44l122.93-64.4A40.77,40.77,0,0,0,494.17,417a42.15,42.15,0,0,0,27.76-14.54,40.72,40.72,0,0,0,10-25.74Zm-199.3,87.72"/><path class="cls-3" d="M347.25,449.86a6.76,6.76,0,0,0,9.12,2.86l4.8-2.51a6.76,6.76,0,0,0-6.27-12l-4.8,2.51a6.76,6.76,0,0,0-2.85,9.12Zm0,0"/><path class="cls-3" d="M378.84,433.33a6.76,6.76,0,0,0,9.12,2.86L399.87,430a6.76,6.76,0,1,0-6.27-12l-11.91,6.24a6.76,6.76,0,0,0-2.85,9.12Zm0,0"/><path class="cls-3" d="M417.54,413.07a6.77,6.77,0,0,0,9.13,2.86l4.79-2.51a6.76,6.76,0,0,0-6.27-12L420.4,404a6.76,6.76,0,0,0-2.86,9.12Zm0,0"/><circle class="cls-5" cx="301.56" cy="273.33" r="20.57"/><circle class="cls-5" cx="542.3" cy="135.16" r="20.57"/></svg>