<svg id="Capa_1" data-name="Capa 1" xmlns="http://www.w3.org/2000/svg" xmlns:xlink="http://www.w3.org/1999/xlink" viewBox="0 0 800 480.54"><defs><style>.cls-1{fill:none;}.cls-2{clip-path:url(#clip-path);}.cls-3{fill:#f5f5f5;}.cls-4{fill:#c8bbeb;}.cls-5{fill:#41b7a8;}.cls-6{fill:#8e6ee6;}.cls-7,.cls-8,.cls-9{fill:#5e35d1;}.cls-7{stroke:#8e6ee6;stroke-miterlimit:10;stroke-width:3px;}.cls-9{font-size:97.14px;font-family:Poppins-SemiBold, Poppins SemiBold;font-weight:600;letter-spacing:-0.06em;}</style><clipPath id="clip-path"><rect class="cls-1" x="137.01" y="122.28" width="327.97" height="206.57"/></clipPath></defs><g class="cls-2"><path class="cls-3" d="M415.4,122.42a25.16,25.16,0,0,0-25.16,25.16V411.77H176.37V147.58a25.17,25.17,0,0,1,25.16-25.16Zm0,0"/><path class="cls-3" d="M415.4,122.42a25.16,25.16,0,0,0-25.16,25.16V399.19c-107.69,0-195-87.31-195-195,0-76.55-.75-72.9,2.21-79.5,5.34-3.27-19.69-2.27,218-2.27Zm0,0"/><path class="cls-4" d="M440.56,147.58v25.16H390.24c0-23.33-2.08-33.4,7.35-43a25.17,25.17,0,0,1,43,17.8Zm0,0"/><path class="cls-4" d="M440.56,148.78v11.38H428a25.15,25.15,0,0,1-22.9-35.47,25.16,25.16,0,0,1,35.48,24.09Zm0,0"/></g><path class="cls-3" d="M364.87,183.37H200.56A24.65,24.65,0,0,0,175.92,208V405.19a8.22,8.22,0,0,0,13.47,6.33l44-36.72,39.18,32.36a16.43,16.43,0,0,0,21,0L332,374.8l44,36.72a8.27,8.27,0,0,0,5.26,1.89,8.39,8.39,0,0,0,3.45-.74,8.22,8.22,0,0,0,4.76-7.48V208a24.65,24.65,0,0,0-24.65-24.65Zm-24.64,57.51"/><rect class="cls-5" x="391.51" y="277.84" width="47.82" height="62.38"/><path class="cls-5" d="M314.53,286a24.13,24.13,0,0,0-5.31,19.45l5.35,34.73H377V277.84H333a24.12,24.12,0,0,0-18.42,8.2Zm0,0"/><rect class="cls-5" x="391.51" y="354.78" width="47.82" height="62.38"/><path class="cls-5" d="M377,354.78H316.81l5.68,36.94a30.82,30.82,0,0,0,29.65,25.44H377Zm0,62.38"/><path class="cls-5" d="M337.45,433.79a7.28,7.28,0,1,0,0,14.56h9.88a22.88,22.88,0,1,0,42.61,0h51a22.87,22.87,0,1,0,42-1.48,31,31,0,0,0,10.4-5.94,29.92,29.92,0,0,0,10.28-18l27.27-177.3h19.29a7.28,7.28,0,0,0,0-14.56H524.59a7.29,7.29,0,0,0-7.2,6.18l-6.25,40.61H453.89v62.38h47.66l-2.24,14.56H453.89v62.38h35.82l-.55,3.53c-1.09,7.1-8.08,13.1-15.26,13.1Zm0,0"/><path class="cls-6" d="M620.53,236.8c0,20.48-15.82,37.08-35.34,37.08s-35.33-16.6-35.33-37.08,15.82-37.09,35.33-37.09,35.34,16.6,35.34,37.09Z"/><path class="cls-7" d="M601.87,231.41h-11.3V219.48a5.38,5.38,0,1,0-10.76,0v11.93h-11.3a5.38,5.38,0,0,0,0,10.76h11.3V254.1a5.38,5.38,0,1,0,10.76,0V242.17h11.3a5.38,5.38,0,0,0,0-10.76Z"/><circle class="cls-8" cx="204.58" cy="311.48" r="8.49"/><circle class="cls-8" cx="204.58" cy="255.52" r="8.49"/><circle class="cls-8" cx="245.14" cy="284.52" r="8.49"/><circle class="cls-8" cx="204.58" cy="362.54" r="8.49"/><circle class="cls-8" cx="283.85" cy="316.83" r="8.49"/><circle class="cls-8" cx="283.85" cy="366.26" r="8.49"/><circle class="cls-8" cx="245.14" cy="338.43" r="8.49"/><text class="cls-9" transform="translate(256.01 244.21)">$</text></svg>