<svg id="Capa_1" data-name="Capa 1" xmlns="http://www.w3.org/2000/svg" viewBox="0 0 800 480.54"><defs><style>.cls-1,.cls-9{fill:#f5f5f5;}.cls-10,.cls-2,.cls-4{fill:none;stroke-linecap:round;stroke-linejoin:round;}.cls-2{stroke:#8e6ee6;}.cls-2,.cls-4{stroke-width:10px;}.cls-3{fill:#41b7a8;}.cls-10,.cls-4{stroke:#f5f5f5;}.cls-5{fill:#8e6ee6;}.cls-6{fill:#5e35d1;}.cls-7{fill:#c8bbeb;}.cls-8{fill:#e4e4e4;}.cls-9{font-size:45.12px;font-family:Poppins-SemiBold, Poppins SemiBold;font-weight:600;}.cls-10{stroke-width:9px;}</style></defs><path class="cls-1" d="M375.62,474.6a5.78,5.78,0,0,0,5.78-5.79v-4.63a5.79,5.79,0,1,0-11.57,0v4.63a5.79,5.79,0,0,0,5.79,5.79Zm0,0"/><path class="cls-1" d="M375.62,444.07a5.78,5.78,0,0,0,5.78-5.79V426.77a5.79,5.79,0,1,0-11.57,0v11.51a5.79,5.79,0,0,0,5.79,5.79Zm0,0"/><path class="cls-1" d="M375.62,406.65a5.78,5.78,0,0,0,5.78-5.78v-4.64a5.79,5.79,0,1,0-11.57,0v4.64a5.78,5.78,0,0,0,5.79,5.78Zm0,0"/><line class="cls-2" x1="330.27" y1="436.99" x2="330.27" y2="363.26"/><path class="cls-3" d="M576.92,256a5.79,5.79,0,0,0-5.79-5.79H566.5a5.79,5.79,0,1,0,0,11.58h4.63a5.79,5.79,0,0,0,5.79-5.79Zm0,0"/><path class="cls-3" d="M546.38,256a5.79,5.79,0,0,0-5.78-5.79H529.08a5.79,5.79,0,0,0,0,11.58H540.6a5.78,5.78,0,0,0,5.78-5.79Zm0,0"/><path class="cls-3" d="M509,256a5.79,5.79,0,0,0-5.79-5.79h-4.63a5.79,5.79,0,0,0,0,11.58h4.63A5.79,5.79,0,0,0,509,256Zm0,0"/><path class="cls-1" d="M572.25,359.17a5.78,5.78,0,0,0-5.78-5.79H555A5.79,5.79,0,1,0,555,365h11.51a5.79,5.79,0,0,0,5.78-5.79Zm0,0"/><path class="cls-1" d="M534.84,359.17a5.78,5.78,0,0,0-5.78-5.79h-4.64a5.79,5.79,0,1,0,0,11.58h4.64a5.79,5.79,0,0,0,5.78-5.79Zm0,0"/><path class="cls-3" d="M572,181.54a5.79,5.79,0,0,0-5.79,5.79v11.51a5.79,5.79,0,0,0,11.58,0V187.33a5.79,5.79,0,0,0-5.79-5.79Zm0,0"/><path class="cls-3" d="M572,219a5.8,5.8,0,0,0-5.79,5.79v4.63a5.79,5.79,0,1,0,11.58,0v-4.63A5.79,5.79,0,0,0,572,219Zm0,0"/><line class="cls-2" x1="593.25" y1="331.91" x2="504.1" y2="331.91"/><path class="cls-1" d="M220.6,323.13a5.79,5.79,0,0,0,5.79,5.79H231a5.79,5.79,0,0,0,0-11.58h-4.63a5.79,5.79,0,0,0-5.79,5.79Zm0,0"/><path class="cls-1" d="M251.13,323.13a5.79,5.79,0,0,0,5.79,5.79h11.51a5.79,5.79,0,1,0,0-11.58H256.92a5.79,5.79,0,0,0-5.79,5.79Zm0,0"/><path class="cls-1" d="M288.55,323.13a5.79,5.79,0,0,0,5.78,5.79H299a5.79,5.79,0,0,0,0-11.58h-4.64a5.78,5.78,0,0,0-5.78,5.79Zm0,0"/><path class="cls-1" d="M225.26,220a5.79,5.79,0,0,0,5.79,5.79h11.51a5.79,5.79,0,0,0,0-11.58H231.05a5.79,5.79,0,0,0-5.79,5.79Zm0,0"/><path class="cls-1" d="M262.68,220a5.78,5.78,0,0,0,5.78,5.79h4.64a5.79,5.79,0,0,0,0-11.58h-4.64a5.78,5.78,0,0,0-5.78,5.79Zm0,0"/><line class="cls-2" x1="259.93" y1="256.31" x2="333.66" y2="256.31"/><path class="cls-1" d="M366,117a5.79,5.79,0,0,0-5.79,5.79v4.63a5.79,5.79,0,0,0,11.58,0V122.8A5.79,5.79,0,0,0,366,117Zm0,0"/><path class="cls-1" d="M366,147.55a5.79,5.79,0,0,0-5.79,5.78v11.51a5.79,5.79,0,1,0,11.58,0V153.33a5.78,5.78,0,0,0-5.79-5.78Zm0,0"/><path class="cls-1" d="M366,185a5.79,5.79,0,0,0-5.79,5.78v4.64a5.79,5.79,0,0,0,11.58,0v-4.64A5.78,5.78,0,0,0,366,185Zm0,0"/><path class="cls-1" d="M324,148.49a5.78,5.78,0,0,0-5.79,5.78v11.51a5.79,5.79,0,1,0,11.57,0V154.27a5.78,5.78,0,0,0-5.78-5.78Zm0,0"/><path class="cls-1" d="M324,185.9a5.79,5.79,0,0,0-5.79,5.79v4.63a5.79,5.79,0,1,0,11.57,0v-4.63A5.78,5.78,0,0,0,324,185.9Zm0,0"/><line class="cls-4" x1="451.49" y1="424.42" x2="451.49" y2="401.78"/><line class="cls-4" x1="412.24" y1="473.85" x2="412.24" y2="400.12"/><line class="cls-4" x1="529.1" y1="294.01" x2="439.96" y2="294.01"/><line class="cls-4" x1="221.35" y1="286.5" x2="295.08" y2="286.5"/><line class="cls-4" x1="441.9" y1="100.68" x2="441.9" y2="189.83"/><line class="cls-2" x1="402.65" y1="117.76" x2="402.65" y2="191.49"/><path class="cls-5" d="M495,405.64H305.35a16.87,16.87,0,0,1-16.82-16.82V199.19a16.87,16.87,0,0,1,16.82-16.81H495a16.87,16.87,0,0,1,16.81,16.81V388.82A16.87,16.87,0,0,1,495,405.64Z"/><circle class="cls-6" cx="349.54" cy="213.06" r="7.87"/><circle class="cls-6" cx="374.74" cy="213.06" r="7.87"/><circle class="cls-6" cx="399.96" cy="213.06" r="7.87"/><circle class="cls-6" cx="424.98" cy="213.06" r="7.87"/><circle class="cls-6" cx="450.19" cy="213.06" r="7.87"/><circle class="cls-6" cx="475.21" cy="213.06" r="7.87"/><circle class="cls-6" cx="324" cy="213.06" r="7.87"/><circle class="cls-6" cx="349.89" cy="240.38" r="7.87"/><circle class="cls-6" cx="375.09" cy="240.38" r="7.87"/><circle class="cls-6" cx="400.31" cy="240.38" r="7.87"/><circle class="cls-6" cx="425.33" cy="240.38" r="7.87"/><circle class="cls-6" cx="450.54" cy="240.38" r="7.87"/><circle class="cls-6" cx="475.56" cy="240.38" r="7.87"/><circle class="cls-6" cx="324.35" cy="240.38" r="7.87"/><circle class="cls-6" cx="349.89" cy="267.7" r="7.87"/><circle class="cls-6" cx="375.09" cy="267.7" r="7.87"/><circle class="cls-6" cx="400.31" cy="267.7" r="7.87"/><circle class="cls-6" cx="425.33" cy="267.7" r="7.87"/><circle class="cls-6" cx="450.54" cy="267.7" r="7.87"/><circle class="cls-6" cx="475.56" cy="267.7" r="7.87"/><circle class="cls-6" cx="324.35" cy="267.7" r="7.87"/><path class="cls-6" d="M296.79,371.84H503.53a8.43,8.43,0,0,1,8.45,8.45v16.9a8.43,8.43,0,0,1-8.45,8.45H296.79a8.43,8.43,0,0,1-8.45-8.45v-16.9a8.43,8.43,0,0,1,8.45-8.45Zm0,0"/><path class="cls-7" d="M309.47,393h-4.23a4.23,4.23,0,0,1,0-8.45h4.23a4.23,4.23,0,0,1,0,8.45Zm0,0"/><path class="cls-8" d="M490.86,393h-38a4.23,4.23,0,0,1,0-8.45h38a4.23,4.23,0,0,1,0,8.45Zm0,0"/><path class="cls-5" d="M332.38,393h-4.22a4.23,4.23,0,1,1,0-8.45h4.22a4.23,4.23,0,1,1,0,8.45Zm0,0"/><text class="cls-9" transform="translate(356.35 336.32)">GPU</text><path class="cls-3" d="M616.22,112c0-.11,0-.22,0-.34a30.77,30.77,0,0,0-59.78-10.25,26.25,26.25,0,0,0-6.18-.74,26.54,26.54,0,0,0-24.11,15.72,28.58,28.58,0,0,0,4.32,56.83h81.35A30.77,30.77,0,0,0,616.22,112Zm0,0"/><polyline class="cls-10" points="541.2 150.08 572.26 121.42 603.5 149.22"/></svg>