<svg id="Capa_1" data-name="Capa 1" xmlns="http://www.w3.org/2000/svg" viewBox="0 0 800 480.54"><defs><style>.cls-1{fill:#c8bbeb;}.cls-2{fill:#41b7a8;}.cls-3,.cls-6{fill:#f5f5f5;}.cls-4,.cls-5{fill:#5e35d1;}.cls-5{font-size:62.91px;stroke:#5e35d1;font-family:Poppins-SemiBold, Poppins SemiBold;font-weight:600;}.cls-5,.cls-6{stroke-miterlimit:10;}.cls-6{stroke:#41b7a8;stroke-width:3px;}</style></defs><rect class="cls-1" x="400.83" y="238.2" width="168.14" height="122.77"/><path class="cls-2" d="M574.33,342.48,511.41,325.7h-53l-62.91,16.78a53,53,0,0,0-39.38,51.25v77.53a7.5,7.5,0,0,0,7.5,7.5H558.07V448.45a5.63,5.63,0,1,1,11.25,0v30.31h36.89a7.5,7.5,0,0,0,7.5-7.5V393.73A53,53,0,0,0,574.33,342.48Z"/><path class="cls-3" d="M203.38,154.67l161.83,0a17.08,17.08,0,0,1,17.08,17.08V284.48a17.08,17.08,0,0,1-17.08,17.08H339.55a7.83,7.83,0,0,0-7.82,7.83v11.05a3.13,3.13,0,0,1-5.05,2.47l-25.19-19.68a7.83,7.83,0,0,0-4.82-1.67l-93.29,0a17.09,17.09,0,0,1-17.09-17.08V171.76a17.09,17.09,0,0,1,17.09-17.09Zm0,0"/><path class="cls-3" d="M458.37,328V293.11h53V328a26.52,26.52,0,0,1-53,0Zm0,0"/><path class="cls-3" d="M424.28,184.43v63a60.62,60.62,0,0,0,121.23,0v-63Zm0,0"/><path class="cls-1" d="M404.58,189.73A75.77,75.77,0,0,1,480.35,114h22a22.72,22.72,0,0,1,22.73,22.73h9.85A30.31,30.31,0,0,1,565.21,167v62.89h-19.7L526.89,194a2.91,2.91,0,0,0-4.65-.72l-8,8a30.31,30.31,0,0,1-21.43,8.88h-23a60.58,60.58,0,0,0-38.95,14.17l-6.59,5.53h-19.7Zm0,0"/><path class="cls-4" d="M410.14,257.17h12.15a3,3,0,0,0,3-3V205.61a3,3,0,0,0-3-3H410.14A15.15,15.15,0,0,0,395,217.76V242a15.15,15.15,0,0,0,15.15,15.16Zm0,0"/><path class="cls-4" d="M415.18,448.45H240.91V349.94a15.15,15.15,0,0,1,15.15-15.15H400a15.15,15.15,0,0,1,15.15,15.15Zm0,0"/><path class="cls-1" d="M240.91,448.45H422.84a7.5,7.5,0,0,1,7.5,7.5v7.65a15.16,15.16,0,0,1-15.16,15.16H256.06a15.15,15.15,0,0,1-15.15-15.16Zm0,0"/><path class="cls-4" d="M542.48,286H489.92V274.44h52.56a2,2,0,0,0,2-2v-19.6h11.6v19.6A13.63,13.63,0,0,1,542.48,286Zm0,0"/><path class="cls-4" d="M559.65,257.17H547.5a3,3,0,0,1-3-3V205.61a3,3,0,0,1,3-3h12.15a15.15,15.15,0,0,1,15.16,15.15V242a15.16,15.16,0,0,1-15.16,15.16Zm0,0"/><path class="cls-2" d="M497.78,279.44a11.87,11.87,0,1,1-11.87-11.88,11.86,11.86,0,0,1,11.87,11.88Zm0,0"/><text class="cls-5" transform="translate(244.19 251.38)">&lt;/&gt;</text><circle class="cls-4" cx="318.67" cy="184.43" r="7.76"/><circle class="cls-4" cx="254.75" cy="184.43" r="7.76"/><circle class="cls-4" cx="318.47" cy="271.68" r="7.76"/><circle class="cls-4" cx="215.22" cy="225.46" r="7.76"/><circle class="cls-4" cx="254.75" cy="271.42" r="7.76"/><circle class="cls-4" cx="352.9" cy="225.46" r="7.76"/><path class="cls-1" d="M331,386l1.71,1.71a2.24,2.24,0,0,1,0,3.16l-10,10a2.23,2.23,0,0,1-3.15,0l-1.72-1.72a3.16,3.16,0,0,0-4.46,0l-6.11,6.11a3.16,3.16,0,0,0,0,4.46l1.72,1.72a11.16,11.16,0,0,0,15.77,0l18.55-18.55a11.16,11.16,0,0,0,0-15.77l-1.72-1.72a3.14,3.14,0,0,0-4.45,0L331,381.52a3.16,3.16,0,0,0,0,4.46Zm0,0"/><path class="cls-6" d="M514.22,390.51c5.29,3.78,8.62,10.13,8.32,16.18,2-1.67,2.57-4.84,2-7.56a44.56,44.56,0,0,0-3-8.17c-1.21-2.72-2.27-5.59-2-8.31a8.88,8.88,0,0,1,7.87-8.16c-1.21,1.06-.91,3.17,0,4.68a29.39,29.39,0,0,0,3.62,4.08,25.43,25.43,0,0,1,7,13.16,20,20,0,0,1-2.27,13.6,10.13,10.13,0,0,0,5.44-10.88A25.41,25.41,0,0,1,544,416.51a20.82,20.82,0,0,1-2,5.44,15.82,15.82,0,0,1-13.91,8h-4.68a15.79,15.79,0,0,1-15.27-11c-.15-.45-.15-.76-.3-1.21A12.11,12.11,0,0,1,511.2,407C515,403.21,516.49,397.77,514.22,390.51Z"/></svg>