<svg id="Capa_1" data-name="Capa 1" xmlns="http://www.w3.org/2000/svg" viewBox="0 0 800 480.54"><defs><style>.cls-1{fill:#f5f5f5;}.cls-2{fill:#8e6ee6;}.cls-3{fill:#5e35d1;}.cls-4{fill:#41b7a8;}</style></defs><path class="cls-1" d="M556.46,462H243.53a21.48,21.48,0,0,1-21.48-21.47V215.43A21.48,21.48,0,0,1,243.53,194H556.46a21.48,21.48,0,0,1,21.48,21.48V440.52A21.48,21.48,0,0,1,556.46,462Zm0,0"/><path class="cls-2" d="M565.84,480.54H234.14a39.42,39.42,0,0,1-39.42-39.43A10.26,10.26,0,0,1,205,430.85H595a10.26,10.26,0,0,1,10.27,10.26,39.43,39.43,0,0,1-39.43,39.43Zm0,0"/><path class="cls-3" d="M334.07,430.85v12.42a12.43,12.43,0,0,0,12.43,12.42h107a12.42,12.42,0,0,0,12.42-12.42V430.85Zm0,0"/><path class="cls-2" d="M442.58,403.47,440.06,394c20.81-5.67,29-70,6.3-153.23-22.07-83.24-61.17-134.95-82-129.28l-2.52-9.45c33.42-8.83,74.41,61.79,94,136.21S476.63,394,442.58,403.47Z"/><path class="cls-2" d="M523.3,315.82c-32.16,8.83-85.77,4.41-135.58-8.83-39.73-10.72-75.05-25.85-100.9-42.25C259.7,247.08,247.09,228.8,251.51,213l9.45,1.89c-2.52,10.72,8.83,25.86,31.54,41,24.59,16.4,59.27,30.9,97.74,41C473.48,319,537.8,311.41,543.48,290l9.45,2.52C549.78,303.84,539.06,311.41,523.3,315.82Z"/><path class="cls-2" d="M291.86,363.12c-24.59-24.6,16.4-95.23,70.63-149.46s124.86-95.85,150.09-71.26l-6.94,6.94c-15.14-15.13-75,10.09-135.58,71.26S283.67,341,298.8,356.18Z"/><path class="cls-4" d="M535.28,216.82c19.55,73.15-24,148.82-97.12,169s-148.82-24-169-97.12,24-148.82,97.12-169S515.1,143.67,535.28,216.82Z"/><path class="cls-1" d="M354.92,375.73c-1.89-.63-1.89-1.26-1.26-3.16.63-.63.63-1.89.63-3.15l-1.89-3.78c2.52-1.26,3.16-1.89,3.16-4.42.63-.63,1.26-.63,1.26-1.26l1.26-1.26c1.26-1.89.63-2.52-.63-3.78l-1.26-1.26c1.26-.63,3.78-.63,4.41-1.9,1.89-4.41,4.41-8.19,3.15-14.5v-2.52a9.21,9.21,0,0,1,3.79-5.68c1.89-.63,2.52-2.52,3.15-4.41a18,18,0,0,0,0-8.2c-1.26-2.52-.63-5,0-7.57a3.79,3.79,0,0,0,.63-2.52,31.62,31.62,0,0,0,1.26-7.57c0-1.26-.63-3.15-1.89-3.15-1.89,0-3.78-1.89-5-3.15-.64-.63-1.27-.63-2.53-1.26-1.89-.63-3.78.63-5.67-1.26-1.26-1.27-2.53-.64-3.79-.64-2.52-3.15-5-6.93-7.56-10.09l-.63-.63c-3.16-.63-5.68-3.15-7.57-5.67-1.89-1.89-3.79-3.78-5.68-.63-.63-.63-1.26-1.26-1.89-1.26h-5.67v-1.89c-.63,0-1.9-.64-2.53,0-1.89,1.89-5,2.52-5,6.93h0c-1.89-1.26-1.89-1.26-3.78-.63-1.27.63-1.9,1.26-3.16,0s-1.26-2.52-1.26-4.41c.63-2.53,0-4.42-1.89-5.05a5.68,5.68,0,0,0-3.15-.63H302c0-1.89.63-3.15.63-4.41.64-1.26.64-2.53,1.27-4.42.63-1.26,0-1.89-1.27-1.89-2.52,0-3.78,1.26-5,3.78a8.62,8.62,0,0,1-1.89,2.53c-3.15,1.26-5.68-1.89-5-6.94,0-1.89.63-3.78.63-5.67.63-4.42,3.16-6.94,6.94-6.94,1.26,0,2.52.63,3.15-1.89l.63-.63c3.79,0,4.42,0,5.68,5a2.31,2.31,0,0,0,.63,1.89l1.89,1.89c.63-.63,1.26-1.26,1.26-1.89v-5c-1.26-3.79-.63-6.94,2.53-8.83a4.92,4.92,0,0,0,2.52-2.52,9,9,0,0,0,1.26-3.79c0-4.41,1.89-6.3,3.78-8.82,1.26-1.27,1.89-2.53,3.16-3.79a24.67,24.67,0,0,0,5-6.3H331c-.63.63-1.26,1.89-1.89,2.52,1.89.63,7.57-3.16,8.83-6.31a8,8,0,0,1-3.79.63c-1.26,0-1.89-.63-1.26-2.52v-1.89a2.31,2.31,0,0,0-1.89-.63c-.63,0-1.89,1.26-3.15,1.89,1.89-1.89,3.15-3.15,5.67-3.78,1.9,0,3.79-1.27,5-1.9.63,0,.63-.63,1.26-.63-.63,1.9-1.26,3.16-1.89,5v.63a2.2,2.2,0,0,0,1.26.63c1.26-.63,1.89,0,3.15.63a3,3,0,0,0,3.79-1.26Q347,197,344.2,196c-.63,0-.63-1.27-.63-1.9,0-1.26.63-1.89.63-3.15.64-1.89,0-3.78-1.89-4.41s-2.52-1.9-2.52-4.42c0-3.78-1.89-5-4.41-3.15-.63.63-1.27,0-1.9,0,.63-2.52-1.26-2.52-1.89-3.78s-5-1.27-5.67,0c-.63,1.89-1.89,3.15-2.53,5-.63.63-.63,1.89-.63,3.15,0,1.9,0,3.16-1.26,3.79a26.79,26.79,0,0,0-1.26,6.93c0,.63-.63,1.26-1.26,1.9l-.63-.64c0-1.26.63-2.52.63-3.78a6.35,6.35,0,0,0-.63-1.89,44,44,0,0,1-6.31-2.52c-.63,0-1.26-.63-1.89-.63,0-1.26-.63-3.79,0-4.42,3.16-3.15,6.94-6.3,10.09-9.46h0c-.63.63-.63,1.89-1.26,2.53,1.26,1.26,2.52,1.26,3.15,0a.62.62,0,0,0,.63-.64,3.29,3.29,0,0,1,2.53-1.26c-.63-.63-1.26-1.89-1.9-2.52,2.53-1.26,4.42-4.41,4.42-5.67l-1.26-1.27v-.63c1.89.63,3.78.63,5.67,1.27,1.26.63,1.26,1.89,0,3.15a4.78,4.78,0,0,1-2.52,1.26c-1.26.63-2.52,1.26-2.52,3.15h1.26q1.89-.94,3.78,1.89l1.89,1.9c1.27.63,2.53,0,3.79-1.27,1.89-1.89,3.15-2.52,1.26-5.67,2.52,1.26,3.78.63,5.68-3.15-.64,0-1.27-.63-1.9-.63-1.26-.63-2.52-1.27-2.52-3.79,0-.63-.63-1.26-1.26-1.89a57.84,57.84,0,0,0-6.31-3.15c.63-.63.63-1.26,1.26-1.89v-.64a13.87,13.87,0,0,1-5-.63,20,20,0,0,0,12.61-5c0,3.15.63,4.41,3.16,4.41,1.26,0,2.52-.63,3.78-.63,2.52,0,3.78,1.89,3.15,4.42v1.26c.63.63,1.89.63,2.52,1.26a13.77,13.77,0,0,0-3.15,1.89v.63c.63,0,1.26.63,1.89.63-.63.63-1.26,1.26-1.26,1.89a10.78,10.78,0,0,0-1.26,3.16c.63,2.52,1.89,5.67,2.52,8.2l.63.63c1.26,0,3.16.63,4.42,0,.63,0,1.26-1.9,1.89-2.53a13.77,13.77,0,0,1,1.89-3.15c.63-.63,1.26-1.89,2.52-2.52.63-.63,1.9-1.26,2.53-1.89s1.89-.63,2.52-1.26a14.9,14.9,0,0,1,9.46-5.68c1.26,0,1.89-1.26,2.52-1.89v-.63c-.63,0-.63,0-1.26-.63,1.89-1.9,1.89-1.9,1.26-4.42,4.41-3.15,4.41-3.15,3.15-5.67,1.26-.63,1.89-1.89.63-3.16l5.68-3.78V138c-1.26,0-2.52.63-3.78.63a9.43,9.43,0,0,1-3.79.63h-.63c0-1.89-1.26-1.26-1.26-1.26a94.13,94.13,0,0,0-13.24,1.26c-1.26,0-2.52,1.26-3.79,1.89L354.92,143c-.63-.63-1.26-1.26-1.89-1.26-7.56-.63-14.5.63-20.81,4.42h-.63a6.42,6.42,0,0,0-5,3.15l2.52,2.52c-1.89.63-3.78.63-5,1.26a8.88,8.88,0,0,0-1.9-2.52c-1.89-.63-3.15,0-4.41,1.89,1.26,0,2.52.63,3.78.63.63,0,1.89.63,1.89,1.27,0,3.78,1.9,3.15,3.16,3.78L322.76,162a3.8,3.8,0,0,0-.63,2.53c.63,0,1.26.63,1.9.63h.63c-.63,1.26-.63,1.89-1.27,1.89a9,9,0,0,1-3.78-1.26c1.26-3.16,1.89-6.31,5.05-7.57-1.9-.63-3.79.63-5.05,2.52-.63.63-1.26,1.26-1.26,1.89.63-.63,1.26-2.52,1.89-4.41h1.89c.63,0,.63-.63,1.26-1.26-.63-.63-.63-1.89-1.26-1.89h-4.41c-.63,0-.63,1.26-1.26,1.26.63.63,1.26.63,1.26,1.26.63,0,.63,0,1.26.63-1.89,1.26-3.78,1.89-5.67,3.15,1.89,1.89,3.78,2.52,5,1.89L312,169.52h-1.26c-1.26,0-2.52-.63-3.78-.63a5.68,5.68,0,0,1,3.15-.63c.63,0,1.26-1.26,1.26-1.89,0-1.89.63-3.79.63-5.68-1.26-1.26-2.52,0-3.78,1.26-1.89,1.26-3.78.63-5.68,0-.63-1.26-1.26-1.26-2.52-1.26a67.13,67.13,0,0,0-5.67,6.94,2.31,2.31,0,0,0,1.89-.63c.63,0,.63-.63,1.26-.63a.62.62,0,0,1,.63.63c0,1.26-2.52,0-1.26,2.52,1.89.63,3.15.63,5,1.26a6.82,6.82,0,0,1-4.41-1.89h-4.41a144.91,144.91,0,0,0-27.75,65.58l1.89,1.89a10.73,10.73,0,0,1,3.78,10.09,2.32,2.32,0,0,0,.64,1.9c1.26,1.89,1.89,3.78,3.15,5.67a2.3,2.3,0,0,0,3.15,1.26c-1.89-4.41-3.78-8.83-4.41-13.87l1.89,3.78a21.33,21.33,0,0,0,3.78,7.57,19.88,19.88,0,0,1,3.16,6.31,3.27,3.27,0,0,0,1.26,2.52c1.89,3.78,5,5.67,8.19,5,3.79-.63,6.31,1.89,9.46,3.79a2.2,2.2,0,0,1,1.26.63,35.4,35.4,0,0,1,4.42,2.52c-.63,1.26-1.89,1.89,0,3.15,1.26.63,2.52,1.89,3.78,2.52,1.89,1.9,2.53,1.27,3.79-1.26,3.15,5,3.78,6.94,1.26,12.62-1.26,3.15-2.52,5.67-.63,8.82v.63a10.65,10.65,0,0,0,1.89,6.31c1.26,1.89,3.15,4.42,3.78,6.31,2.52,4.41,5.05,8.19,8.83,10.72,3.15,1.89,4.41,5,5.05,9.46.63,5,1.89,10.72,2.52,15.76.63,3.15.63,6.31,1.26,9.46a2.31,2.31,0,0,0,.63,1.89c.63,1.89,1.26,3.79,1.89,6.31,0,1.26.63,1.89.63,3.15.63,1.26,1.26,1.89,2.52,0,0,1.89.64,2.52.64,3.78a8,8,0,0,0,.63,3.79,76.47,76.47,0,0,0,10.72,4.41v-3.15C356.19,377,356.19,376.36,354.92,375.73Z"/><path class="cls-1" d="M515.1,184.65a12.2,12.2,0,0,0-4.42.64c-1.26,0-2.52,0-3.15.63-3.15,0-5.67.63-8.83.63a2.2,2.2,0,0,0-1.26.63c0,2.52-1.26,1.89-1.89,1.89H492.4c-2.53,0-5-.63-7.57,1.26h-.63c-1.26,0-2.52.63-3.79.63a9,9,0,0,0-3.78,1.26c.63-.63.63-1.26,1.26-1.89-1.26-1.89-2.52-1.89-3.78-1.26a18.52,18.52,0,0,0-5.68,1.26,33.94,33.94,0,0,0-8.19,4.41c-1.9,1.27-3.16,3.79-5.05,5.68-.63.63-1.26,1.26-2.52.63a3,3,0,0,0-3.79,1.26c-.63,1.89.64,2.52,1.27,3.15a13.9,13.9,0,0,0-5,.63l-.63.64c.63,2.52-.63,1.89-1.89,1.89-3.15.63-5.68,1.26-7.57,5a4.92,4.92,0,0,1-2.52,2.52c-.63.64-1.26,0-2.52,0v-.63a2.31,2.31,0,0,0,1.89-.63l1.26-1.26c-.63-.63-1.26-1.89-1.89-1.89-1.89-.63-4.42,0-6.31-.63-.63,0-.63,0-1.26-.63-1.26-1.89-2.52-1.89-3.15-1.26L412.94,213l-1.89,1.89v.63c1.26,1.27,0,2.53,0,3.16-1.26,1.89-2.52,3.15-3.79,5s-.63,5.05.64,6.94c1.26,1.26,1.89,1.26,3.78-.63,1.26-1.26,1.89-.63,2.52,1.26.63,1.26.63,1.89,1.89,1.89a3.39,3.39,0,0,0,2.53-1.89c.63-1.26.63-2.52,1.26-3.78s0-2.53-1.26-2.53c-1.27-.63-1.27-1.26-.63-2.52,0-.63.63-1.26,1.26-1.89.63,3.15,1.26,3.78,3.15,4.41l.63,3.16c-1.26,0-1.89.63-1.89,2.52,0,.63-.63,1.26-.63,1.89-1.26.63-1.89,1.89-3.16,2.52a2.3,2.3,0,0,1-3.15-1.26c-.63-1.26-.63-1.89-1.89-1.89-1.26.63-1.26,1.26-1.26,2.52V237a25.37,25.37,0,0,1-3.15,5.68c0-1.26,0-2.52-.64-2.52a14.75,14.75,0,0,0-4.41-4.42v-1.26c-1.26-1.26-1.89-1.89-3.15-1.26-.63.63-1.89,1.26-2.52,2.52l4.41,4.42a19.42,19.42,0,0,1-.63,6.3,19.71,19.71,0,0,1,6.3-3.15,41.39,41.39,0,0,1-5,5.68c.63,0,1.26.63,1.89.63q1.89.94,1.89,3.78c0,1.89-.63,2.52-1.89,2.52-.63,0-1.89.63-2.52.63-1.89.63-1.89,1.26-1.89,3.79v2.52a4.78,4.78,0,0,0,1.26,2.52,13.18,13.18,0,0,0,3.78,2.52c-.63,2.53-1.89,4.42-2.52,6.94a17.48,17.48,0,0,1-1.89,8.2,15.86,15.86,0,0,0-1.26,9.46c.63,2.52,1.26,5.67,1.89,8.2a29.43,29.43,0,0,0,3.15,6.3,33.12,33.12,0,0,0,6.31,6.94q2.83,2.83,5.67,1.89a2.32,2.32,0,0,1,1.9-.63A4.74,4.74,0,0,0,422.4,312c1.26-1.9,2.52-1.9,4.41-1.26.63.63,1.9.63,2.53,1.26,2.52,0,2.52.63,3.15,3.15,1.26,5,3.78,8.83,6.31,12.61s3.78,6.94,3.15,11.35a7.13,7.13,0,0,0,1.89,6.94c3.78,5,6.31,11.35,9.46,17.66,1.89,3.78,4.41,5,6.94,3.78a12.2,12.2,0,0,0,6.93-10.09c.63-3.15,1.26-5.68,1.89-8.83v-3.15c-1.26-3.15-.63-5.68.63-8.2.64-1.89,1.27-3.78.64-5.68s-.64-3.78-1.27-5.67l-1.89-5.68a20.43,20.43,0,0,1,1.89-13.87,20.75,20.75,0,0,0,2.53-9.46c0-2.52.63-5-.63-7.57-1.9,1.27-3.79,1.9-5,3.16a1.56,1.56,0,0,1-2.52-.63c-1.26-1.26-2.52-3.16-3.79-3.79a19.17,19.17,0,0,1-5-5,53.68,53.68,0,0,0-6.31-10.09,2,2,0,0,0-.63-1.26l.63-.63a55.86,55.86,0,0,1,5.68,6.3,26.79,26.79,0,0,1,3.15,4.42c1.26,1.89,3.16,3.78,4.42,6.3,2.52,3.79,1.89,3.79,5,1.26,3.79-2.52,5.68-6.93,7.57-11.35.63-1.26.63-1.89,1.26-3.15,0-2.52-.63-3.78-2.52-5-.63-.63-1.26-.63-2.52-1.27s-1.9-1.26-1.9.64c0,.63-.63,1.26-.63,1.89-.63.63-.63.63-1.26,0l-1.89-1.89c-1.26-1.27-3.15-2.53-3.78-5.05,1.26,1.26,3.15,2.52,4.41,3.78,1.26.63,2.52,1.27,3.15,0s1.26-1.26,2.53-.63c2.52,1.26,5,.63,6.93,0s4.42.63,5.68,2.53c1.89,3.15,2.52,3.15,5,1.89.63.63.63,1.89,1.26,2.52a58.7,58.7,0,0,0,4.42,8.83l3.78,5.67c1.26,1.9,2.52,1.27,2.52-.63a2.31,2.31,0,0,1,.63-1.89h0c.64-2.52,0-4.41-.63-6.94-.63-1.26,0-2.52.63-3.78,1.27-2.52,1.9-5.67,3.16-8.83.63-.63,1.89-1.26,2.52-1.89,1.89,1.89,4.41,3.78,5.68,6.94.63,1.26,1.26,1.89,1.89.63,0-.63.63-.63,1.26-1.26a18.81,18.81,0,0,1,3.78,8.83,6.75,6.75,0,0,0,1.26,3.78c1.9,3.15,4.42,5.67,6.94,8.83a11.06,11.06,0,0,1-3.15-2.52c-1.89-1.9-3.16-2.53-5-1.9a.62.62,0,0,0-.63.63c0,.63.63.63.63,1.27,3.16,1.89,5,5,7.57,8.19,1.26,1.89,3.15,2.53,4.41,4.42.63.63.63.63,1.26.63.64-1.89,1.27-3.79,1.9-5.68l-.63-.63c-.63-.63-1.27-.63-1.9-1.26s-1.26-1.89-1.89-2.52c0-.63.63-1.26,0-1.89-.63-2.53-1.89-5.05-3.78-6.31-3.15-1.26-3.78-3.78-4.42-6.94,0-1.26,0-1.89,1.27-1.26.63,0,.63,0,1.26.63l5,5a37.59,37.59,0,0,0,2.52-5c.63-.63,0-2.52-.63-3.78a15,15,0,0,0-5-5.68c-1.89-.63-1.89-2.52-1.26-3.78s1.89-1.89,2.52-2.52c1.89-1.26,3.78-1.89,5-4.42a12.62,12.62,0,0,0,1.9-6.93c0-1.89-.63-4.42-1.9-5.68a.62.62,0,0,0-.63-.63,11.06,11.06,0,0,0-2.52-3.15c-2.52-1.89-2.52-1.89-1.26-5.05-.63,0-1.89-.63-2.52-.63a2.31,2.31,0,0,1-1.89-.63,1.57,1.57,0,0,1,0-2.52,2,2,0,0,1,1.26.63,2.2,2.2,0,0,1,.63,1.26c1.26-.63,1.89-1.26,3.15.63h0c1.89,0,2.52,1.26,3.15,3.16,0,.63,1.27,1.26,1.9,1.26s1.26-.63,1.89-1.26a3.8,3.8,0,0,0-.63-2.53l-3.79-3.78c-1.26-1.26-1.26-4.42,0-5,1.9-1.26,2.53-2.52,1.9-5.67-1.27-4.42-3.79-7.57-6.31-10.72-.63-.63-1.89,0-2.52,0s-.63.63-1.26.63a9,9,0,0,0-1.9-1.26c.63-1.89-.63-3.79.63-5.05h0l5.68-1.26c1.26,0,1.89-.63,1.89-2.52,0-.63,0-1.26.63-1.26-1.89-3.79-3.78-6.94-5.67-10.72C519.51,184.65,517,184.65,515.1,184.65Z"/><path class="cls-2" d="M442.58,403.47c-33.42,8.83-74.41-61.8-94.59-136.21S327.81,111.5,361.86,102.05l2.52,9.45c-20.81,5.68-29,70-6.3,153.24s61.17,135,82.61,129.27Z"/><path class="cls-2" d="M552.93,293.12l-9.45-2.52c5.67-20.81-46-59.91-129.28-82C331,185.92,266.64,194.11,261,214.92l-9.45-2.52c8.82-33.42,90.8-33.42,165.21-13.87S561.76,259.07,552.93,293.12Z"/><path class="cls-2" d="M329.07,368.16c-15.76,4.41-29,3.15-36.57-5l6.93-6.94c15.14,15.13,75-10.09,135.58-71.26,60.54-60.54,85.76-120.44,70.63-135.58l6.94-6.94c24.59,24.6-16.4,95.23-70.63,149.46C405.37,328.43,361.23,359.33,329.07,368.16Z"/><circle class="cls-3" cx="339.79" cy="190.96" r="18.29"/><circle class="cls-3" cx="379.52" cy="337.26" r="18.29"/><circle class="cls-4" cx="486.09" cy="230.06" r="18.29"/><path class="cls-2" d="M678.07,266.19l-25,25a8.93,8.93,0,0,1-12.63,0L626.29,277a8.93,8.93,0,0,1,0-12.63l25-25a37.66,37.66,0,0,0-25.49,1.69,39,39,0,0,0-20.52,20.51,37.69,37.69,0,0,0-1.68,25.5l-90.86,90.86a19.6,19.6,0,0,0-5.61,10.37,19,19,0,0,0,22,22,19.6,19.6,0,0,0,10.37-5.61l90.86-90.86a37.69,37.69,0,0,0,25.5-1.68,39,39,0,0,0,20.51-20.52,37.66,37.66,0,0,0,1.69-25.49Z"/><circle class="cls-3" cx="569.47" cy="347.03" r="8.17"/><circle class="cls-3" cx="604.97" cy="313.2" r="8.17"/><circle class="cls-3" cx="534.78" cy="381.82" r="8.17"/></svg>