<svg id="Capa_1" data-name="Capa 1" xmlns="http://www.w3.org/2000/svg" viewBox="0 0 800 480.54"><defs><style>.cls-1{fill:#5e35d1;}.cls-2{fill:#c8bbeb;}.cls-3{fill:#e4e4e4;}.cls-4{fill:#8e6ee6;}.cls-5{fill:#41b7a8;}.cls-6{fill:#f5f5f5;}</style></defs><path class="cls-1" d="M340.35,233.62H460.27a8,8,0,0,1,8,8v16a8,8,0,0,1-8,8H340.35a8,8,0,0,1-8-8v-16a8,8,0,0,1,8-8Zm0,0"/><path class="cls-1" d="M340.35,281.59H460.27a8,8,0,0,1,8,8v16a8,8,0,0,1-8,8H340.35a8,8,0,0,1-8-8v-16a8,8,0,0,1,8-8Zm0,0"/><path class="cls-1" d="M340.35,329.56H460.27a8,8,0,0,1,8,8v16a8,8,0,0,1-8,8H340.35a8,8,0,0,1-8-8v-16a8,8,0,0,1,8-8Zm0,0"/><path class="cls-2" d="M352.34,253.61h-4a4,4,0,0,1,0-8h4a4,4,0,1,1,0,8Zm0,0"/><path class="cls-3" d="M448.28,253.61h-36a4,4,0,1,1,0-8h36a4,4,0,0,1,0,8Zm0,0"/><path class="cls-2" d="M352.34,301.58h-4a4,4,0,0,1,0-8h4a4,4,0,1,1,0,8Zm0,0"/><path class="cls-3" d="M448.28,349.55h-36a4,4,0,1,1,0-8h36a4,4,0,0,1,0,8Zm0,0"/><path class="cls-3" d="M448.28,301.58h-36a4,4,0,1,1,0-8h36a4,4,0,0,1,0,8Zm0,0"/><path class="cls-2" d="M352.34,349.55h-4a4,4,0,0,1,0-8h4a4,4,0,1,1,0,8Zm0,0"/><path class="cls-4" d="M374,253.61h-4a4,4,0,1,1,0-8h4a4,4,0,0,1,0,8Zm0,0"/><path class="cls-4" d="M374,301.58h-4a4,4,0,1,1,0-8h4a4,4,0,0,1,0,8Zm0,0"/><path class="cls-4" d="M374,349.55h-4a4,4,0,1,1,0-8h4a4,4,0,0,1,0,8Zm0,0"/><path class="cls-5" d="M286.39,186.42a16.63,16.63,0,0,1-4.71,13.85,6.19,6.19,0,0,0-1.83,4.33v.63a6,6,0,0,0,6,6H310a6.61,6.61,0,0,0,6.61-6.61V180.5a6,6,0,0,1,6-6h.64a6.15,6.15,0,0,1,4.32,1.84,16.69,16.69,0,1,0,0-23.7,6.09,6.09,0,0,1-4.3,1.83h-.64a6,6,0,0,1-6-6V124.37a6.61,6.61,0,0,0-6.61-6.61H229.77a6.68,6.68,0,0,0-6.67,6.68v80.18a6.61,6.61,0,0,0,6.61,6.61h24.11a6,6,0,0,0,6-6v-.64a6.1,6.1,0,0,0-1.83-4.31,16.69,16.69,0,1,1,28.4-13.87Zm0,0"/><path class="cls-5" d="M391.91,159.64h-4.49a5.62,5.62,0,0,0,0,11.23h4.49a5.62,5.62,0,1,0,0-11.23Zm0,0"/><path class="cls-5" d="M428.2,159.64H417a5.62,5.62,0,0,0,0,11.23H428.2a5.62,5.62,0,0,0,0-11.23Zm0,0"/><path class="cls-5" d="M457.81,159.64h-4.49a5.62,5.62,0,1,0,0,11.23h4.49a5.62,5.62,0,1,0,0-11.23Zm0,0"/><path class="cls-6" d="M510.61,183.54a17.31,17.31,0,0,1-14.4-4.89,6.43,6.43,0,0,0-4.49-1.91h-.66a6.22,6.22,0,0,0-6.23,6.23V208a6.86,6.86,0,0,0,6.87,6.87h25.06a6.23,6.23,0,0,1,6.23,6.23v.66a6.39,6.39,0,0,1-1.91,4.49,17.36,17.36,0,1,0,24.62,0,6.36,6.36,0,0,1-1.89-4.47v-.67A6.23,6.23,0,0,1,550,214.9H575.1A6.86,6.86,0,0,0,582,208V124.7a6.94,6.94,0,0,0-6.94-6.94H491.69a6.87,6.87,0,0,0-6.86,6.87V149.7a6.22,6.22,0,0,0,6.23,6.22h.66a6.32,6.32,0,0,0,4.47-1.89,17.35,17.35,0,1,1,14.42,29.51Zm0,0"/><path class="cls-6" d="M532.64,279.08A5.62,5.62,0,0,0,527,284.7v4.49a5.62,5.62,0,0,0,11.23,0V284.7a5.62,5.62,0,0,0-5.62-5.62Zm0,0"/><path class="cls-6" d="M532.64,308.7a5.61,5.61,0,0,0-5.61,5.61v11.16a5.62,5.62,0,1,0,11.23,0V314.31a5.62,5.62,0,0,0-5.62-5.61Zm0,0"/><path class="cls-6" d="M532.64,345a5.61,5.61,0,0,0-5.61,5.61v4.49a5.62,5.62,0,1,0,11.23,0v-4.49a5.62,5.62,0,0,0-5.62-5.61Zm0,0"/><path class="cls-5" d="M514.43,407.28a17.8,17.8,0,0,1,5-14.79,6.57,6.57,0,0,0,2-4.61v-.68a6.39,6.39,0,0,0-6.4-6.39H489.29a7.05,7.05,0,0,0-7.05,7.05V413.6a6.39,6.39,0,0,1-6.39,6.39h-.68a6.57,6.57,0,0,1-4.61-2,17.81,17.81,0,1,0,0,25.28,6.49,6.49,0,0,1,4.59-1.95h7.08v32.13a7.05,7.05,0,0,0,7.05,7.05h85.56a7.13,7.13,0,0,0,7.12-7.13V387.86a7.05,7.05,0,0,0-7.05-7.05H549.18a6.39,6.39,0,0,0-6.39,6.39v.69a6.57,6.57,0,0,0,1.94,4.59,17.81,17.81,0,1,1-30.3,14.8Zm0,0"/><path class="cls-5" d="M413.2,424.3h-4.5a5.62,5.62,0,0,0,0,11.23h4.5a5.62,5.62,0,0,0,0-11.23Zm0,0"/><path class="cls-5" d="M383.58,424.3H372.42a5.62,5.62,0,1,0,0,11.23h11.16a5.62,5.62,0,1,0,0-11.23Zm0,0"/><path class="cls-5" d="M347.3,424.3h-4.49a5.62,5.62,0,1,0,0,11.23h4.49a5.62,5.62,0,0,0,0-11.23Zm0,0"/><path class="cls-6" d="M291.28,414.29a16.78,16.78,0,0,1,14,4.75,6.23,6.23,0,0,0,4.36,1.85h.64a6.05,6.05,0,0,0,6.05-6.05V390.51a6.67,6.67,0,0,0-6.67-6.67H285.31a6,6,0,0,1-6.05-6v-.64a6.18,6.18,0,0,1,1.86-4.36,16.84,16.84,0,1,0-23.91,0,6.16,6.16,0,0,1,1.85,4.34v.65a6,6,0,0,1-6.05,6H228.68a6.67,6.67,0,0,0-6.67,6.67v80.9a6.74,6.74,0,0,0,6.74,6.74h80.89a6.67,6.67,0,0,0,6.67-6.67V447.15a6.05,6.05,0,0,0-6.05-6h-.64a6.18,6.18,0,0,0-4.34,1.84,16.84,16.84,0,1,1-14-28.65Zm0,0"/><path class="cls-6" d="M268,300.36a5.62,5.62,0,0,0-5.61,5.62v4.49a5.62,5.62,0,0,0,11.23,0V306a5.62,5.62,0,0,0-5.62-5.62Zm0,0"/><path class="cls-6" d="M268,264.08a5.61,5.61,0,0,0-5.61,5.61v11.17a5.62,5.62,0,0,0,11.23,0V269.69a5.62,5.62,0,0,0-5.62-5.61Zm0,0"/><path class="cls-6" d="M268,234.47a5.61,5.61,0,0,0-5.61,5.61v4.49a5.62,5.62,0,1,0,11.23,0v-4.49a5.62,5.62,0,0,0-5.62-5.61Zm0,0"/><circle class="cls-1" cx="254.2" cy="406.12" r="8.16"/><circle class="cls-1" cx="254.2" cy="455.22" r="8.16"/><circle class="cls-1" cx="553.45" cy="142.6" r="8.16"/><circle class="cls-1" cx="553.45" cy="191.7" r="8.16"/></svg>