<svg id="Capa_1" data-name="Capa 1" xmlns="http://www.w3.org/2000/svg" viewBox="0 0 800 480.54"><defs><style>.cls-1{fill:#f5f5f5;}.cls-2{fill:#8e6ee6;}.cls-3{font-size:45.12px;}.cls-3,.cls-4,.cls-8,.cls-9{fill:#41b7a8;}.cls-3,.cls-4{font-family:Poppins-SemiBold, Poppins SemiBold;font-weight:600;}.cls-4{font-size:7.02px;}.cls-5{fill:#e4e4e4;}.cls-6,.cls-7{fill:#5e35d1;}.cls-7,.cls-8{fill-rule:evenodd;}</style></defs><path class="cls-1" d="M506.19,191.59a146.42,146.42,0,0,0-83.77,26.16L319.6,165.43H255.87v289h78.77c45.95,0,73.52,25,75.7,26.16h24.15c2.22-1.18,29.68-26.16,75.7-26.16H589V191.59Zm0,0"/><path class="cls-1" d="M603.11,251.86H589V191.59H506.19a146.47,146.47,0,0,0-83.78,26.16V480.54h12.08c2.22-1.18,29.68-26.16,75.7-26.16H589V278h14.15a8,8,0,0,0,8-8V259.86A8,8,0,0,0,603.11,251.86Z"/><path class="cls-2" d="M279.63,144.45h16.18V118.27H279.63a10,10,0,0,0-10,10v6.18A10,10,0,0,0,279.63,144.45Z"/><path class="cls-2" d="M306.85,100H294.11V389h38.23c49.67,0,90.08,41.07,90.08,91.55V217.75c0-64.91-51.85-117.71-115.57-117.71Zm0,0"/><text class="cls-3" transform="translate(436.02 301.75) rotate(-31.83)"> </text><text class="cls-4" transform="translate(444.21 296.74) rotate(-30.11)"> </text><text class="cls-3" transform="translate(444.36 295.48) rotate(-23.84)">G</text><text class="cls-3" transform="translate(471.3 282.52) rotate(-6.27)">u</text><text class="cls-3" transform="translate(500.2 280.28) rotate(-1.17)">i</text><text class="cls-3" transform="translate(512.27 280.01) rotate(-0.65)">d</text><text class="cls-3" transform="translate(542.73 279.68) rotate(-0.3)">e</text><path class="cls-5" d="M229.68,207.87h16.18a10,10,0,0,1,10,10v6.18a10,10,0,0,1-10,10H229.68a0,0,0,0,1,0,0V207.87A0,0,0,0,1,229.68,207.87Z" transform="translate(485.55 441.93) rotate(-180)"/><path class="cls-6" d="M506.11,325.76a34.76,34.76,0,0,0-34.61,31.61h28.29v-9.49a3.15,3.15,0,0,1,5.39-2.23l12.65,12.64a3.19,3.19,0,0,1,.92,2.24h0a3.17,3.17,0,0,1-.92,2.23L505.18,375.4a2.61,2.61,0,0,1-.31.27l-.1.08a2.07,2.07,0,0,1-.32.19l0,0-.37.16-.09,0a3.23,3.23,0,0,1-.81.16h-.08a3,3,0,0,1-.84-.08l-.09,0a3.1,3.1,0,0,1-.4-.13,3.16,3.16,0,0,1-1.95-2.92v-9.48H471.5a34.76,34.76,0,1,0,34.61-37.93Z"/><circle class="cls-6" cx="322.7" cy="184.39" r="7.92"/><circle class="cls-6" cx="322.7" cy="132.18" r="7.92"/><circle class="cls-6" cx="359.06" cy="147.26" r="7.92"/><circle class="cls-6" cx="359.06" cy="347.87" r="7.92"/><circle class="cls-6" cx="391.71" cy="275.7" r="7.92"/><circle class="cls-6" cx="359.06" cy="247.85" r="7.92"/><circle class="cls-6" cx="322.7" cy="232.02" r="7.92"/><circle class="cls-6" cx="391.71" cy="181.49" r="7.92"/><circle class="cls-6" cx="391.71" cy="227.61" r="7.92"/><circle class="cls-6" cx="391.71" cy="323.44" r="7.92"/><circle class="cls-6" cx="391.71" cy="372.57" r="7.92"/><circle class="cls-6" cx="359.06" cy="197.56" r="7.92"/><path class="cls-7" d="M184.08,403.16c12.42,3.91,26.58,3.6,39.35-5.45,14.24-10.09,16.16-23.46,9.18-33.32s-20.24-12.49-34.48-2.4c-12.84,9.1-17.82,22.36-18.2,35.43-.16,4.85-.54,4.32,4.15,5.74Zm0,0"/><path class="cls-7" d="M274.92,334.41A55.49,55.49,0,0,1,265.33,409c-2.15,1.79-4.38,1.61-6-.72l-59.13-83.45c-1.82-2.57-1.3-4.43,1.31-5.94a55.32,55.32,0,0,1,73.44,15.56Zm0,0"/><path class="cls-7" d="M360.06,278C356.26,304.21,343,332.27,311,355s-69.35,28.45-81.34,11.53,5.84-50.16,37.88-72.86,62.92-26,88.87-20.81c2.93.56,4.08,2.19,3.68,5.2Zm0,0"/><path class="cls-8" d="M282.21,329.24A15.73,15.73,0,1,0,286,307.3a15.79,15.79,0,0,0-3.74,21.94Zm0,0"/><path class="cls-9" d="M183.36,337.93a5.36,5.36,0,0,1,6.2,8.75l-55.68,39.45a5.36,5.36,0,0,1-6.2-8.75ZM235,410.81a5.37,5.37,0,0,1,6.2,8.76l-61.51,43.58a5.36,5.36,0,0,1-6.2-8.75Zm-76.86-.23a5.37,5.37,0,1,1,6.2,8.76l-12.08,8.56a5.37,5.37,0,0,1-6.21-8.76Zm0,0"/></svg>