<svg id="Capa_1" data-name="Capa 1" xmlns="http://www.w3.org/2000/svg" viewBox="0 0 800 480.54"><defs><style>.cls-1{fill:#f5f5f5;}.cls-2{fill:#5e35d1;}.cls-3{fill:#c8bbeb;}.cls-4{fill:none;}.cls-5{fill:#41b7a8;}</style></defs><path class="cls-1" d="M397.81,473.08c-29.81,0-57.65-24.27-76.38-66.49a257.4,257.4,0,0,1-17.87-59.67,347.33,347.33,0,0,1,0-121.06,257.54,257.54,0,0,1,17.87-59.67,160.6,160.6,0,0,1,16.94-30,6.22,6.22,0,1,1,10.07,7.3,148.42,148.42,0,0,0-15.63,27.78,244.86,244.86,0,0,0-17,56.84,334.33,334.33,0,0,0,0,116.63,245.18,245.18,0,0,0,17,56.84c16.65,37.56,40.35,59.1,65,59.1s48.35-21.54,65-59.09a245.51,245.51,0,0,0,17-56.82,334.65,334.65,0,0,0,0-116.63,244.76,244.76,0,0,0-17-56.83c-16.65-37.57-40.34-59.1-65-59.1a47,47,0,0,0-24.76,7.36A6.22,6.22,0,1,1,366.56,109a59.22,59.22,0,0,1,31.25-9.23c29.8,0,57.64,24.27,76.37,66.49a257.54,257.54,0,0,1,17.87,59.67A346.75,346.75,0,0,1,492,347a257.78,257.78,0,0,1-17.86,59.66c-18.73,42.23-46.57,66.47-76.37,66.47Zm0,0"/><path class="cls-2" d="M483.33,410.89a309.66,309.66,0,0,1-126.81-31.3c-98.35-46-157.31-123-134.25-175.18A66.58,66.58,0,0,1,261.74,170c43.7-16.41,111.67-7.52,177.34,23.21,98.32,46,157.31,123,134.25,175.16a66.62,66.62,0,0,1-39.45,34.36,145.2,145.2,0,0,1-50.55,8.12ZM312.46,174.28a132.65,132.65,0,0,0-46.35,7.39,53.88,53.88,0,0,0-32.45,27.77c-20,45.19,37.5,116.45,128.14,158.87,62.75,29.34,127,38.08,167.7,22.82A53.81,53.81,0,0,0,562,363.37c20-45.19-37.5-116.45-128.14-158.87-42.33-19.8-85.35-30.22-121.35-30.22Zm0,0"/><path class="cls-3" d="M227,369.6a6.21,6.21,0,0,1-5.81-4c-8.94-23.47-1.87-52.89,19.91-82.84a258.46,258.46,0,0,1,64.49-60.5,7.16,7.16,0,0,1,.61-.48,362.08,362.08,0,0,1,50.35-28.56,367,367,0,0,1,39.31-15.7,291.86,291.86,0,0,1,72.22-15c32.68-2.3,60.22,2.57,79.65,14.11a6.22,6.22,0,1,1-6.36,10.7c-17.23-10.23-42.27-14.54-72.42-12.4a279.94,279.94,0,0,0-69.16,14.4,357,357,0,0,0-38,15.17,350.56,350.56,0,0,0-48,27.14,4.85,4.85,0,0,1-.62.5,246.9,246.9,0,0,0-62,57.9c-19.23,26.46-25.74,51.72-18.35,71.13a6.22,6.22,0,0,1-3.6,8,6,6,0,0,1-2.22.4Zm0,0"/><path class="cls-3" d="M312.15,410.86a126.55,126.55,0,0,1-64-14.57A6.22,6.22,0,0,1,251,384.6h.07a6.28,6.28,0,0,1,3.18.87c17.23,10.23,42.26,14.52,72.41,12.4a280.56,280.56,0,0,0,69.17-14.39,356.81,356.81,0,0,0,38-15.17,349,349,0,0,0,48-27.15,4.11,4.11,0,0,1,.62-.48,246.55,246.55,0,0,0,62-57.9c19.23-26.46,25.74-51.71,18.35-71.13a6.22,6.22,0,1,1,11.63-4.43c8.93,23.48,1.87,52.89-19.92,82.85A258.24,258.24,0,0,1,490,350.57a4.81,4.81,0,0,1-.62.47A362.47,362.47,0,0,1,439,379.61a367.17,367.17,0,0,1-39.27,15.69,292.67,292.67,0,0,1-72.22,15q-7.91.57-15.39.57Zm0,0"/><rect class="cls-4" x="216.96" y="99.72" width="361.69" height="373.36"/><path class="cls-5" d="M339.35,243.51H457.27a7.85,7.85,0,0,1,7.87,7.87V267.1a7.85,7.85,0,0,1-7.87,7.86H339.35a7.85,7.85,0,0,1-7.87-7.86V251.38a7.85,7.85,0,0,1,7.87-7.87Zm0,0"/><path class="cls-5" d="M339.35,290.68H457.27a7.85,7.85,0,0,1,7.87,7.87v15.72a7.84,7.84,0,0,1-7.87,7.86H339.35a7.84,7.84,0,0,1-7.87-7.86V298.55a7.85,7.85,0,0,1,7.87-7.87Zm0,0"/><path class="cls-2" d="M351.14,263.17h-3.93a3.93,3.93,0,0,1,0-7.86h3.93a3.93,3.93,0,0,1,0,7.86Zm0,0"/><path class="cls-1" d="M445.48,263.17H410.1a3.93,3.93,0,0,1,0-7.86h35.38a3.93,3.93,0,0,1,0,7.86Zm0,0"/><path class="cls-2" d="M351.14,310.34h-3.93a3.93,3.93,0,0,1,0-7.86h3.93a3.93,3.93,0,1,1,0,7.86Zm0,0"/><path class="cls-1" d="M445.48,310.34H410.1a3.93,3.93,0,0,1,0-7.86h35.38a3.93,3.93,0,0,1,0,7.86Zm0,0"/><path class="cls-2" d="M372.46,263.17h-3.93a3.93,3.93,0,1,1,0-7.86h3.93a3.93,3.93,0,0,1,0,7.86Zm0,0"/><path class="cls-2" d="M372.46,310.34h-3.93a3.93,3.93,0,0,1,0-7.86h3.93a3.93,3.93,0,0,1,0,7.86Zm0,0"/><path class="cls-2" d="M578.26,193.06a18.67,18.67,0,1,1-18.67-18.66,18.67,18.67,0,0,1,18.67,18.66Zm0,0"/><path class="cls-2" d="M254.69,379.74A18.67,18.67,0,1,1,236,361.08a18.67,18.67,0,0,1,18.67,18.66Zm0,0"/><path class="cls-2" d="M372.91,124.62A18.67,18.67,0,1,1,354.25,106a18.66,18.66,0,0,1,18.66,18.67Zm0,0"/></svg>