<svg id="Capa_1" data-name="Capa 1" xmlns="http://www.w3.org/2000/svg" xmlns:xlink="http://www.w3.org/1999/xlink" viewBox="0 0 800 480.54"><defs><style>.cls-1{fill:none;}.cls-2{clip-path:url(#clip-path);}.cls-3,.cls-5{fill:#41b7a8;}.cls-4,.cls-6{fill:#5e35d1;}.cls-10,.cls-4,.cls-5{fill-rule:evenodd;}.cls-10,.cls-7{fill:#8e6ee6;}.cls-8{fill:#f5f5f5;}.cls-9{fill:#c8bbeb;}</style><clipPath id="clip-path"><polygon class="cls-1" points="676.86 414.19 367.45 413.14 367.45 241.25 676.86 242.29 676.86 414.19"/></clipPath></defs><g class="cls-2"><path class="cls-3" d="M640.13,329.68l-26.24,1.23c-8.73.82-17.46,1.39-26.14,2.42-8.67,1.2-17.37,2-26,3.69l-12.89,2.26-12.77,2.77A365.79,365.79,0,0,0,486.38,357c-8,3.19-15.94,6.52-23.55,10.44-.54.27-1.06.56-1.59.83,6.06-5.3,12.45-10.32,19-15a248.81,248.81,0,0,1,41.33-23.82c7.18-3.5,14.81-6.11,22.29-8.92,3.83-1.22,7.72-2.27,11.56-3.41,1.93-.54,3.84-1.16,5.78-1.65l5.92-1.22c15.62-3.83,31.82-4.67,47.78-5.08l.68,0,.48,0c4.9-.37,8.53-4.23,8.11-8.6s-4.73-7.63-9.63-7.25c-17.43,1.33-34.86,3.28-51.37,8.27L557,303.14c-2.05.63-4.05,1.4-6.07,2.09-4,1.44-8.08,2.78-12,4.3-7.75,3.4-15.59,6.61-22.9,10.68a253.44,253.44,0,0,0-41.31,27.08q-5.22,4.24-10.17,8.71,3.42-4.41,7-8.71a292,292,0,0,1,31.31-32.7,202,202,0,0,1,17.72-14.22,162.76,162.76,0,0,1,19.26-12,116.8,116.8,0,0,1,42.51-13.68h.11l.52-.07c4.83-.8,8-4.95,7.13-9.27s-5.53-7.17-10.36-6.38a132.68,132.68,0,0,0-47.87,18.3,175.65,175.65,0,0,0-19.91,14.16,212.45,212.45,0,0,0-17.63,16,296.47,296.47,0,0,0-29.94,35.49,329.74,329.74,0,0,0-21.41,33.69,331.47,331.47,0,0,0-21.41-33.69,297.41,297.41,0,0,0-29.94-35.49,212.59,212.59,0,0,0-17.64-16A173.88,173.88,0,0,0,354,277.22a132.63,132.63,0,0,0-47.86-18.3l-.55-.07c-4.87-.53-9.31,2.58-9.9,6.94s2.88,8.32,7.76,8.85h.09A116.8,116.8,0,0,1,346,288.33a162.64,162.64,0,0,1,19.25,12A203.58,203.58,0,0,1,383,314.59a293.81,293.81,0,0,1,31.31,32.7q3.54,4.31,6.95,8.71-5-4.46-10.17-8.71a253.44,253.44,0,0,0-41.31-27.08c-7.3-4.07-15.14-7.28-22.9-10.68-4-1.52-8-2.86-12-4.3-2-.69-4-1.46-6.07-2.09l-6.24-1.65c-16.51-5-33.94-6.94-51.37-8.27l-.5,0c-4.92-.12-9,3.34-9.15,7.73s3.73,8.05,8.64,8.18h.66c16,.41,32.16,1.25,47.78,5.08l5.91,1.22c1.95.49,3.85,1.11,5.79,1.65,3.84,1.14,7.73,2.19,11.55,3.41,7.49,2.81,15.11,5.42,22.3,8.92a248.32,248.32,0,0,1,41.32,23.82c6.57,4.72,12.95,9.74,19,15l-1.58-.83c-7.61-3.92-15.54-7.25-23.55-10.44a365.93,365.93,0,0,0-49.77-14.93l-12.77-2.77L323.9,337c-8.59-1.66-17.29-2.49-25.95-3.69-8.69-1-17.42-1.6-26.14-2.42l-26.24-1.23a4.56,4.56,0,0,0-.52,0c-4.92,0-8.88,3.6-8.85,8s4,7.93,9,7.91h.42l25.47-.13c8.47.35,17,.45,25.45,1,8.43.73,16.95,1.09,25.34,2.26l12.62,1.52,12.53,2a360,360,0,0,1,49.12,11.92c7.93,2.68,15.83,5.5,23.41,8.9A145.74,145.74,0,0,1,440.32,384s0,.09.07.14a3.72,3.72,0,0,0,.37.3c.05,0,.08.09.13.13s.07,0,.11.05a3,3,0,0,0,.7.34l.3.09a3.26,3.26,0,0,0,.62.06.85.85,0,0,0,.16,0,1.92,1.92,0,0,0,.24,0,2.63,2.63,0,0,0,.56,0l.28-.08a2.68,2.68,0,0,0,.72-.3l.09,0c.05,0,.07-.08.11-.11a3.25,3.25,0,0,0,.42-.31,1.09,1.09,0,0,0,.14-.23,144.75,144.75,0,0,1,20.85-10.91c7.57-3.4,15.47-6.22,23.41-8.9a359.83,359.83,0,0,1,49.11-11.92l12.53-2,12.63-1.52c8.38-1.17,16.9-1.53,25.34-2.26,8.46-.56,17-.66,25.44-1l25.48.13h.44l.49,0c4.91-.23,8.68-4,8.42-8.36S645,329.44,640.13,329.68Z"/></g><path class="cls-4" d="M446.69,336.45c12.06-9.16,21.3-22.81,21.3-41,0-20.31-11.4-31.13-25.47-31.13s-25.47,10.82-25.47,31.13c0,18.31,9.24,32,21.39,41.11,4.5,3.42,3.75,3.42,8.25-.08Zm0,0"/><path class="cls-4" d="M442.52,203.94a64.57,64.57,0,0,1,64.34,59.26c.25,3.25-1.41,5.25-4.74,5.25h-119c-3.66,0-5.07-1.75-4.74-5.25a64.35,64.35,0,0,1,64.17-59.26Zm0,0"/><path class="cls-4" d="M446.27,85.17c22.3,21.22,40,52.68,40,98.38s-19.64,85-43.78,85-43.69-39.28-43.69-85,17.64-77.24,40-98.38c2.5-2.41,4.82-2.41,7.41,0Zm0,0"/><path class="cls-5" d="M446.27,85.17a131.06,131.06,0,0,1,12.81,14.15,123.63,123.63,0,0,1,15.24,25.47H410.73a123.8,123.8,0,0,1,23.63-35.21c1.5-1.5,3-3,4.5-4.41,2.5-2.41,4.82-2.41,7.41,0Zm0,0"/><path class="cls-5" d="M442.52,193.54a18.31,18.31,0,1,0-18.31-18.31,18.37,18.37,0,0,0,18.31,18.31Zm0,0"/><path class="cls-6" d="M312.27,369.36c-32.28,0-58.44-9.27-58.44-20.7V379.1h.11c1.78,10.87,27.21,19.48,58.33,19.48S368.82,390,370.6,379.1h.11V348.66c0,11.43-26.16,20.7-58.44,20.7Zm0,0"/><path class="cls-7" d="M312.27,340.14c-32.28,0-58.44-9.27-58.44-20.7v30.44h.11c1.78,10.87,27.21,19.48,58.33,19.48s56.55-8.61,58.33-19.48h.11V319.44c0,11.43-26.16,20.7-58.44,20.7Zm0,0"/><path class="cls-8" d="M370.71,290.22c0,11.43-26.16,20.7-58.44,20.7s-58.44-9.27-58.44-20.7,26.16-20.7,58.44-20.7,58.44,9.27,58.44,20.7Zm0,0"/><path class="cls-9" d="M312.27,310.92c-32.28,0-58.44-9.27-58.44-20.7v30.44h.11c1.78,10.87,27.21,19.48,58.33,19.48s56.55-8.61,58.33-19.48h.11V290.22c0,11.43-26.16,20.7-58.44,20.7Zm0,0"/><path class="cls-10" d="M189.14,289.51,204.3,277.3l31.3-28.9,34.49-24.3,15.17-12.21a16.84,16.84,0,0,1,23.54,2.48l14.72,18.22a3.82,3.82,0,0,1-.56,5.32L206.7,331.83a3.72,3.72,0,0,1-5.31-.57l-14.73-18.21a16.77,16.77,0,0,1,2.48-23.54Zm0,0"/><path class="cls-4" d="M247.58,242.31l5.27-4.21L270,224.17c26-21-21-46.43-27.18-16.32l-4.56,22.08L216.58,247.5,194,247.29c-30.83-.18-15.76,51,10.2,30l17.2-13.92,5.26-4.28Zm0,0"/><path class="cls-10" d="M218.64,227.8a14,14,0,0,1,19.65,2.07l10.45,12.95L227,260.4l-10.45-13a14,14,0,0,1,2.07-19.64Zm0,0"/><path class="cls-10" d="M241,480.54h144.8A19.61,19.61,0,0,0,405.35,461V393a4.45,4.45,0,0,0-4.43-4.44H225.76a4.45,4.45,0,0,0-4.43,4.44V461A19.67,19.67,0,0,0,241,480.54Zm0,0"/><rect class="cls-6" x="298.35" y="384.54" width="29.98" height="96"/><circle class="cls-6" cx="242.96" cy="405.29" r="8.48"/><circle class="cls-6" cx="277.93" cy="441.95" r="8.48"/><circle class="cls-6" cx="242.96" cy="459.15" r="8.48"/><circle class="cls-6" cx="387.42" cy="409.05" r="8.48"/><circle class="cls-6" cx="387.42" cy="460.07" r="8.48"/><circle class="cls-6" cx="348.48" cy="423.15" r="8.48"/></svg>