<svg id="Capa_1" data-name="Capa 1" xmlns="http://www.w3.org/2000/svg" viewBox="0 0 800 480.54"><defs><style>.cls-1,.cls-6{fill:#5e35d1;}.cls-2{fill:#f5f5f5;}.cls-3{fill:#c8bbeb;}.cls-4{fill:#41b7a8;}.cls-5{fill:#e5e5e5;}.cls-6{stroke:#41b7a8;stroke-miterlimit:10;stroke-width:3px;}</style></defs><path class="cls-1" d="M255.83,132.23a39.9,39.9,0,0,0-11.26,28.59,3.93,3.93,0,0,0,4,3.87L266,164.4a3.94,3.94,0,0,0,3.88-4,14.85,14.85,0,0,1,14.62-15.13,3.9,3.9,0,0,0,2.77-1.2h0a3.92,3.92,0,0,0,1.11-2.81L288,123.88a3.94,3.94,0,0,0-4-3.88A39.91,39.91,0,0,0,255.83,132.23Z"/><path class="cls-1" d="M285.44,87.23A74.9,74.9,0,0,0,211.8,163.4a3.94,3.94,0,0,0,4,3.88l17.4-.29a4,4,0,0,0,3.88-4,49.56,49.56,0,0,1,48.78-50.46,3.94,3.94,0,0,0,2.77-1.2,4,4,0,0,0,1.11-2.81l-.3-17.4A3.94,3.94,0,0,0,285.44,87.23Z"/><path class="cls-2" d="M592.26,467.41V399.78a22.73,22.73,0,0,0-9.68-18.6l-42.67-29.87a17,17,0,0,0-9.77-3.08H495.78l.57,97.1a23.71,23.71,0,0,0,16.46,22.08Z"/><path class="cls-2" d="M558.21,467.41H518.48a22.71,22.71,0,0,1-22.7-22.7V422h39.73Z"/><path class="cls-1" d="M410.66,178a28.23,28.23,0,0,0-11.35,2.4V138.26H297.16a34,34,0,0,0-34.05,34.05V274.46h42.12a28.38,28.38,0,1,1,52,0h42.12V232.34A28.37,28.37,0,1,0,410.66,178Z"/><path class="cls-3" d="M535.51,172.31a34,34,0,0,0-34.05-34.05H399.31v42.12a28.37,28.37,0,1,1,0,52v42.12h42.12a28.37,28.37,0,1,0,52,0h42.13Z"/><path class="cls-3" d="M388,319.86a28.25,28.25,0,0,1,11.35,2.39V274.46H357.19a28.38,28.38,0,1,0-52,0H263.11V376.61a34,34,0,0,0,34.05,34.05H399.31V374.22A28.38,28.38,0,1,1,388,319.86Z"/><path class="cls-4" d="M547.35,393.06l-35.91-95.9L472,312a28.41,28.41,0,1,1-48.64,18.32l-39.43,14.85,16.79,44.89a28,28,0,0,0-11.46,1.75,28.45,28.45,0,0,0,20,53.29,28.16,28.16,0,0,0,9.79-6.25l12.8,34.22,95.64-36A34.19,34.19,0,0,0,547.35,393.06Z"/><path class="cls-5" d="M524.26,393.73A14,14,0,0,0,504.2,413.4l.2.2,19.76,19.76a34.05,34.05,0,0,0,34.05,34.05h34v-5.68Z"/><path class="cls-1" d="M544,213.49l-37.89,37.89a6.63,6.63,0,0,1-9.33,0l-38.53-38.53a27.85,27.85,0,0,1-7.87-15.62h14l8.42,14.59a2.45,2.45,0,0,0,2.13,1.24h.25a2.45,2.45,0,0,0,2.11-1.67l8.05-23.58,7.06,40.06a2.57,2.57,0,0,0,2.25,2.07h.2a2.49,2.49,0,0,0,2.23-1.41l9.44-19.44,2.33,13.49a2.5,2.5,0,0,0,2.17,2.07h.28a2.47,2.47,0,0,0,2.3-1.52l6.06-14.58h1.92a7.37,7.37,0,1,0,0-5h-3.57a2.42,2.42,0,0,0-2.28,1.54l-3.44,8.23L510,200.63a2.5,2.5,0,0,0-2.1-2l-.34,0a2.51,2.51,0,0,0-2.24,1.39l-9.45,19.49-7.41-42a2.48,2.48,0,0,0-2.25-2.09h-.16a2.51,2.51,0,0,0-2.38,1.69l-9.39,27.53-6.42-11.11a2.5,2.5,0,0,0-2.15-1.24H450.06a27.84,27.84,0,0,1,47.53-18.8,30.78,30.78,0,0,1,3.82,4.76,27.37,27.37,0,0,1,3.8-4.79,27.87,27.87,0,0,1,39.76.35c10.66,11.05,9.83,28.84-1,39.7Zm0,0"/><rect class="cls-2" x="314.18" y="274.46" width="31.66" height="136.21"/><path class="cls-1" d="M330,288.63a5.34,5.34,0,0,0-5.34,5.34v4.27a5.34,5.34,0,0,0,10.68,0V294a5.34,5.34,0,0,0-5.34-5.34Zm0,0"/><path class="cls-1" d="M330,316.8a5.34,5.34,0,0,0-5.34,5.33v10.62a5.34,5.34,0,0,0,10.68,0V322.13A5.34,5.34,0,0,0,330,316.8Zm0,0"/><path class="cls-1" d="M330,378.33a5.34,5.34,0,0,0-5.34,5.34v10.61a5.34,5.34,0,1,0,10.68,0V383.67a5.34,5.34,0,0,0-5.34-5.34Zm0,0"/><path class="cls-1" d="M330,351.31a5.34,5.34,0,0,0-5.34,5.33v4.28a5.34,5.34,0,1,0,10.68,0v-4.28a5.34,5.34,0,0,0-5.34-5.33Zm0,0"/><path class="cls-1" d="M254.56,294.8A46.43,46.43,0,1,0,301,341.23a46.43,46.43,0,0,0-46.44-46.43Zm0,9.28a36.94,36.94,0,0,1,34.57,23.61,85.91,85.91,0,0,0-69.13,0,36.93,36.93,0,0,1,34.56-23.61Zm-7.64,73.5A37.25,37.25,0,0,1,217.55,344c13.87,0,29.37,18.46,29.37,33.63Zm15.29,0c0-15.17,15.5-33.63,29.36-33.63a37.25,37.25,0,0,1-29.36,33.63Zm0,0"/><path class="cls-3" d="M254.56,350.44a9.22,9.22,0,1,1,9.22-9.21,9.21,9.21,0,0,1-9.22,9.21Z"/><path class="cls-4" d="M327.37,140.92a13.5,13.5,0,0,1-3.12-3.66H358.4l16,20.68c.24.28.46.57.67.87.07.07.14.13.14.2a9.45,9.45,0,0,1,1.76,5.64,10.17,10.17,0,0,1-10.19,10.19H308.81v3.39a6.77,6.77,0,0,1-3.4,5.88v21.52h3.4A3.39,3.39,0,0,1,312.2,209v13.59a3.39,3.39,0,0,1-3.39,3.39H295.22a3.38,3.38,0,0,1-3.39-3.39V209a3.39,3.39,0,0,1,3.39-3.39h3.4V184.11a6.77,6.77,0,0,1-3.4-5.88V168.05a6.78,6.78,0,0,1,5.43-6.66,8.23,8.23,0,0,1,1.36-.14l42.27-4.41-8.08-7.9Z"/><path class="cls-6" d="M482.7,379,472,382.68l-3.89-11.28A5.38,5.38,0,0,0,458,374.91l3.89,11.28-10.68,3.69a5.38,5.38,0,1,0,3.51,10.17l10.68-3.69,3.9,11.28a5.38,5.38,0,1,0,10.17-3.51l-3.9-11.28,10.68-3.69A5.38,5.38,0,0,0,482.7,379Z"/></svg>