<svg id="Capa_1" data-name="Capa 1" xmlns="http://www.w3.org/2000/svg" viewBox="0 0 800 480.54"><defs><style>.cls-1,.cls-2{fill:none;stroke-linecap:round;stroke-linejoin:round;stroke-width:10px;}.cls-1{stroke:#41b7a8;}.cls-2{stroke:#5e35d1;}.cls-3{fill:#8e6ee6;}.cls-4{fill:#5e35d1;}.cls-5{fill:#f5f5f5;}.cls-6{fill:#c8bbeb;}.cls-7{fill:#41b7a8;}</style></defs><polyline class="cls-1" points="322.19 283.06 322.19 168.85 123.92 168.85"/><polyline class="cls-2" points="540.8 314 540.8 161.93 646.01 161.93"/><path class="cls-3" d="M604.91,344.34A43.63,43.63,0,0,1,561.28,388H368.66a33.47,33.47,0,0,1,13.67,21.81,29.1,29.1,0,0,1-29.09,29.09H197.71a29.09,29.09,0,0,1-7.27-57.23v-.94a43.63,43.63,0,0,1,43.63-43.63,45.5,45.5,0,0,1,19.71,4.87c-1.27-16.65,14.72-49.4,55.91-41-5.87-18.19-2.51-51.71,33.59-69.24,18.82-8.26,52.34-5.16,67.7,13.25-.83-17,20-49.7,55.78-57.59,0,0,13-3,21.81-3a80,80,0,0,1,80,80,78.39,78.39,0,0,1-8.81,36.36h1.53a43.63,43.63,0,0,1,43.63,43.63Zm0,0"/><path class="cls-4" d="M492.31,442.94c-36.86,0-66.74-10.58-66.74-23.63v34.76h.13c2,12.41,31.07,22.24,66.61,22.24s64.58-9.83,66.61-22.24h.13V419.31c0,13.05-29.88,23.63-66.74,23.63Zm0,0"/><path class="cls-3" d="M492.31,409.57c-36.86,0-66.74-10.58-66.74-23.63V420.7h.13c2,12.41,31.07,22.24,66.61,22.24s64.58-9.83,66.61-22.24h.13V385.94c0,13.05-29.88,23.63-66.74,23.63Zm0,0"/><path class="cls-5" d="M559.05,352.57c0,13.05-29.88,23.63-66.74,23.63s-66.74-10.58-66.74-23.63,29.88-23.64,66.74-23.64,66.74,10.58,66.74,23.64Zm0,0"/><path class="cls-6" d="M492.31,376.2c-36.86,0-66.74-10.58-66.74-23.63v34.76h.13c2,12.41,31.07,22.24,66.61,22.24s64.58-9.83,66.61-22.24h.13V352.57c0,13.05-29.88,23.63-66.74,23.63Zm0,0"/><path class="cls-7" d="M425,279.27,381.8,261.69l-43.15,17.58c-1.18,53.35,26.06,74.44,37.85,81.05a9.93,9.93,0,0,0,10.2-.3c11.2-7.32,37.78-29.68,38.28-77.12,0-.07,0-2.51,0-3.63Zm0,0"/><path class="cls-5" d="M387.51,316.3v18.2a5.71,5.71,0,1,1-11.42,0V316.3a17.14,17.14,0,1,1,11.42,0Z"/><circle class="cls-4" cx="322.19" cy="357.46" r="7.63"/><circle class="cls-4" cx="290.53" cy="324.54" r="7.63"/><circle class="cls-4" cx="259.33" cy="352.98" r="7.63"/><circle class="cls-4" cx="320.81" cy="415.61" r="7.63"/><circle class="cls-4" cx="228.09" cy="383.87" r="7.63"/><circle class="cls-4" cx="198.33" cy="414.25" r="7.63"/><circle class="cls-4" cx="258.16" cy="415.35" r="7.63"/><circle class="cls-4" cx="288.69" cy="384.8" r="7.63"/><circle class="cls-4" cx="354.17" cy="391.05" r="7.63"/><circle class="cls-4" cx="496.68" cy="201.01" r="7.63"/><circle class="cls-4" cx="533.17" cy="287.39" r="7.63"/><circle class="cls-4" cx="499.79" cy="256.26" r="7.63"/><circle class="cls-4" cx="590.32" cy="352.08" r="7.63"/><circle class="cls-4" cx="561.42" cy="319.84" r="7.63"/><circle class="cls-4" cx="468.95" cy="285.81" r="7.63"/><circle class="cls-4" cx="503.21" cy="315.47" r="7.63"/><circle class="cls-4" cx="438.41" cy="255" r="7.63"/><circle class="cls-4" cx="467.67" cy="225.45" r="7.63"/><circle class="cls-4" cx="527.78" cy="230.79" r="7.63"/><path class="cls-7" d="M352.9,137.16a5.34,5.34,0,0,0-5.34,5.34v4.28a5.34,5.34,0,0,0,10.68,0V142.5a5.34,5.34,0,0,0-5.34-5.34Zm0,0"/><path class="cls-7" d="M352.9,165.33a5.34,5.34,0,0,0-5.34,5.34v10.62a5.34,5.34,0,0,0,10.68,0V170.67a5.34,5.34,0,0,0-5.34-5.34Zm0,0"/><path class="cls-7" d="M352.9,199.84a5.34,5.34,0,0,0-5.34,5.34v4.27a5.34,5.34,0,0,0,10.68,0v-4.27a5.34,5.34,0,0,0-5.34-5.34Zm0,0"/><path class="cls-7" d="M256,141.66a5.34,5.34,0,0,0,5.34,5.34h4.27a5.34,5.34,0,1,0,0-10.68h-4.27a5.34,5.34,0,0,0-5.34,5.34Zm0,0"/><path class="cls-7" d="M284.18,141.66a5.34,5.34,0,0,0,5.34,5.34h10.62a5.34,5.34,0,1,0,0-10.68H289.52a5.34,5.34,0,0,0-5.34,5.34Zm0,0"/><path class="cls-7" d="M318.69,141.66A5.34,5.34,0,0,0,324,147h4.27a5.34,5.34,0,0,0,0-10.68H324a5.34,5.34,0,0,0-5.34,5.34Zm0,0"/><path class="cls-4" d="M244.1,251.32a5.35,5.35,0,0,0-5.34,5.34v4.28a5.34,5.34,0,0,0,10.68,0v-4.28a5.35,5.35,0,0,0-5.34-5.34Zm0,0"/><path class="cls-4" d="M244.1,279.49a5.34,5.34,0,0,0-5.34,5.34v10.62a5.34,5.34,0,0,0,10.68,0V284.83a5.34,5.34,0,0,0-5.34-5.34Zm0,0"/><path class="cls-4" d="M244.1,314a5.34,5.34,0,0,0-5.34,5.34v4.27a5.34,5.34,0,0,0,10.68,0v-4.27A5.34,5.34,0,0,0,244.1,314Zm0,0"/><path class="cls-4" d="M175.38,255.82a5.34,5.34,0,0,0,5.34,5.34h10.62a5.34,5.34,0,0,0,0-10.68H180.72a5.34,5.34,0,0,0-5.34,5.34Zm0,0"/><path class="cls-4" d="M209.89,255.82a5.34,5.34,0,0,0,5.34,5.34h4.27a5.34,5.34,0,1,0,0-10.68h-4.27a5.34,5.34,0,0,0-5.34,5.34Zm0,0"/><path class="cls-4" d="M496.8,123.12a5.34,5.34,0,0,0-5.34,5.34v4.27a5.34,5.34,0,1,0,10.68,0v-4.27a5.34,5.34,0,0,0-5.34-5.34Zm0,0"/><path class="cls-4" d="M496.8,151.28a5.34,5.34,0,0,0-5.34,5.34v10.62a5.34,5.34,0,1,0,10.68,0V156.62a5.34,5.34,0,0,0-5.34-5.34Zm0,0"/><path class="cls-4" d="M593.68,127.62a5.34,5.34,0,0,0-5.33-5.34h-4.28a5.34,5.34,0,0,0,0,10.68h4.28a5.34,5.34,0,0,0,5.33-5.34Zm0,0"/><path class="cls-4" d="M565.52,127.62a5.34,5.34,0,0,0-5.34-5.34H549.56a5.34,5.34,0,1,0,0,10.68h10.62a5.35,5.35,0,0,0,5.34-5.34Zm0,0"/><path class="cls-4" d="M531,127.62a5.34,5.34,0,0,0-5.34-5.34H521.4a5.34,5.34,0,0,0,0,10.68h4.27a5.35,5.35,0,0,0,5.34-5.34Zm0,0"/></svg>