<svg id="Capa_1" data-name="Capa 1" xmlns="http://www.w3.org/2000/svg" xmlns:xlink="http://www.w3.org/1999/xlink" viewBox="0 0 981.74 298.92"><defs><style>.cls-1{fill:#41b7a8;}.cls-2{fill:url(#Degradado_sin_nombre_11);}.cls-3{fill:url(#Degradado_sin_nombre_2);}</style><linearGradient id="Degradado_sin_nombre_11" x1="108.41" y1="230.54" x2="108.41" y2="3.26" gradientUnits="userSpaceOnUse"><stop offset="0.09" stop-color="#41b7a8"/><stop offset="0.13" stop-color="#45a4ae"/><stop offset="0.21" stop-color="#4e7cba"/><stop offset="0.29" stop-color="#555dc4"/><stop offset="0.37" stop-color="#5a47cb"/><stop offset="0.44" stop-color="#5d3ad0"/><stop offset="0.51" stop-color="#5e35d1"/></linearGradient><linearGradient id="Degradado_sin_nombre_2" x1="103.13" y1="294.71" x2="103.13" y2="49.68" gradientUnits="userSpaceOnUse"><stop offset="0.35" stop-color="#41b7a8"/><stop offset="0.39" stop-color="#45a4ae"/><stop offset="0.47" stop-color="#4e7cba"/><stop offset="0.55" stop-color="#555dc4"/><stop offset="0.63" stop-color="#5a47cb"/><stop offset="0.7" stop-color="#5d3ad0"/><stop offset="0.77" stop-color="#5e35d1"/></linearGradient></defs><path class="cls-1" d="M265.26,119.35a38.12,38.12,0,0,0-20.64-5.85,34.74,34.74,0,0,0-18.42,5.17,36.4,36.4,0,0,0-12.72,13V81.85a5.33,5.33,0,1,0-10.65,0V198.43a5.49,5.49,0,0,0,1.51,3.9,5.35,5.35,0,0,0,7.63,0,5.49,5.49,0,0,0,1.51-3.9V187.76a39.64,39.64,0,0,0,13.16,12.46,35.37,35.37,0,0,0,18.15,4.91,36.85,36.85,0,0,0,20.56-6,41.49,41.49,0,0,0,14.45-16.59A52.43,52.43,0,0,0,285,159.06a51.78,51.78,0,0,0-5.24-23.46A40.33,40.33,0,0,0,265.26,119.35Zm-21.5,4.11a28.74,28.74,0,0,1,15.91,4.59,31.48,31.48,0,0,1,11.06,12.69,40.9,40.9,0,0,1,4,18.32,41.64,41.64,0,0,1-4,18.32,32.46,32.46,0,0,1-11.06,13,27.94,27.94,0,0,1-15.91,4.76,28.57,28.57,0,0,1-16.07-4.67,31.82,31.82,0,0,1-11.06-12.94,44.91,44.91,0,0,1-.09-36.9,29.31,29.31,0,0,1,27.22-17.19Z"/><path class="cls-1" d="M303.68,76.35a5.16,5.16,0,0,0-5.32,5.32V198.09a5.32,5.32,0,1,0,10.64,0V81.67a5.16,5.16,0,0,0-5.32-5.32Z"/><path class="cls-1" d="M403.2,117.16a5.35,5.35,0,0,0-7.63,0,5.45,5.45,0,0,0-1.51,3.89v9.89a33.22,33.22,0,0,0-12.56-12.45,38.41,38.41,0,0,0-39.31.86,41.13,41.13,0,0,0-14.54,16.25,51,51,0,0,0-5.32,23.46,52,52,0,0,0,5.24,23.53A41.56,41.56,0,0,0,342,199.1a37.17,37.17,0,0,0,20.73,6,35.09,35.09,0,0,0,18.76-5.34,36.55,36.55,0,0,0,12.56-12.47v10.77a5.32,5.32,0,1,0,10.64,0v-77a5.48,5.48,0,0,0-1.5-3.89Zm-39.43,78a28.55,28.55,0,0,1-16.07-4.67,31.28,31.28,0,0,1-11-12.94,42.79,42.79,0,0,1-3.92-18.49,41,41,0,0,1,4-18.32,31.51,31.51,0,0,1,11.07-12.69,28.69,28.69,0,0,1,15.9-4.59,28.34,28.34,0,0,1,15.91,4.68A32,32,0,0,1,390.74,141a40.7,40.7,0,0,1,4,18.07,42,42,0,0,1-4,18.49,32,32,0,0,1-11.06,12.94A28.33,28.33,0,0,1,363.77,195.16Z"/><path class="cls-1" d="M483.8,119.68a5.46,5.46,0,0,0-1.42-3.72,4.61,4.61,0,0,0-3.56-1.6H426.26a5.14,5.14,0,0,0-3.64,1.42,5,5,0,0,0,0,7.12,5.14,5.14,0,0,0,3.64,1.42h42.6L418.42,194.2a5.89,5.89,0,0,0-1.59,4.06,5.32,5.32,0,0,0,1.41,3.46,4.67,4.67,0,0,0,3.74,1.69h55.64a5.11,5.11,0,0,0,3.73-1.42,5.16,5.16,0,0,0,0-7.11,5.07,5.07,0,0,0-3.73-1.43H431.76l50.63-69.89A6.64,6.64,0,0,0,483.8,119.68Z"/><path class="cls-1" d="M501.07,114a5.16,5.16,0,0,0-5.32,5.32v78.75a5.32,5.32,0,1,0,10.64,0V119.34a5.16,5.16,0,0,0-5.32-5.32Z"/><path class="cls-1" d="M563.37,113.5a36,36,0,0,0-17.81,4.91,37,37,0,0,0-13,11.76v-8.78a5.32,5.32,0,1,0-10.64,0v76.7a5.32,5.32,0,1,0,10.64,0V148.27a20.74,20.74,0,0,1,4.08-12.3,30.56,30.56,0,0,1,24.5-12.51c7.66,0,13.4,2.31,17.06,6.87s5.52,10.6,5.52,17.94v49.82a5.16,5.16,0,0,0,5.32,5.32,5.27,5.27,0,0,0,3.73-1.5,5.06,5.06,0,0,0,1.6-3.82V147.76c0-10.27-2.52-18.63-7.49-24.86S574,113.5,563.37,113.5Z"/><path class="cls-1" d="M690.28,117.07a5.22,5.22,0,0,0-3.82-1.51,5,5,0,0,0-3.81,1.6,5.45,5.45,0,0,0-1.51,3.89v10.27a36.87,36.87,0,0,0-13-12.4,38.15,38.15,0,0,0-19.87-5.42A39.63,39.63,0,0,0,627,119.44a41.83,41.83,0,0,0-15,16.42,52.76,52.76,0,0,0,0,46.91,41.9,41.9,0,0,0,15,16.42,39.92,39.92,0,0,0,21.42,5.94,39.14,39.14,0,0,0,19.43-5.25,31.84,31.84,0,0,0,13.25-13.81v9.79c0,9.72-2.89,17.54-8.59,23.24s-13.69,8.59-23.75,8.59A55.43,55.43,0,0,1,629,223.6l-3.59-1.54a13.25,13.25,0,0,0-4-1.22,3,3,0,0,0-1.82.55,3.35,3.35,0,0,0-1.62,2.89,4,4,0,0,0,1.22,2.84c.48,1.74,2.33,3.43,5.47,5a50.77,50.77,0,0,0,11.34,4,56.1,56.1,0,0,0,12.63,1.54,48.22,48.22,0,0,0,22.25-5,37.24,37.24,0,0,0,15.32-14.54c3.71-6.34,5.59-14.06,5.59-22.95V121.05A5.41,5.41,0,0,0,690.28,117.07Zm-41,78.09a30.56,30.56,0,0,1-16.59-4.67,32.25,32.25,0,0,1-11.57-12.86,42.24,42.24,0,0,1,0-36.64,32.36,32.36,0,0,1,11.57-12.85,30.59,30.59,0,0,1,16.59-4.68A31.76,31.76,0,0,1,666.08,128a31.11,31.11,0,0,1,11.57,12.68,40.49,40.49,0,0,1,4.18,18.58,41,41,0,0,1-4.18,18.66,31,31,0,0,1-11.57,12.77A31.73,31.73,0,0,1,649.31,195.16Z"/><path class="cls-1" d="M722.51,200.57A64.45,64.45,0,0,1,704.35,187a3.55,3.55,0,0,1-1-2.57,3.93,3.93,0,0,1,1.17-2.65,3.36,3.36,0,0,1,2.5-1.28,3.77,3.77,0,0,1,2.83,1.54,43.32,43.32,0,0,0,15.41,12A44.24,44.24,0,0,0,744,198.09q12.82,0,21.16-6.33A20.05,20.05,0,0,0,773.48,175q-.16-8.22-4.33-13.53A31.18,31.18,0,0,0,758.91,153a157.15,157.15,0,0,0-16.58-7.11,169,169,0,0,1-17.9-7.87,32.1,32.1,0,0,1-11-9.76q-4.57-6.33-4.58-16.61a27.12,27.12,0,0,1,4.5-15.23,30.46,30.46,0,0,1,12.83-10.79,44.79,44.79,0,0,1,19.32-3.94,47.93,47.93,0,0,1,18.66,3.69,33.54,33.54,0,0,1,14,10.35,7.53,7.53,0,0,1,1.66,3.6,3.27,3.27,0,0,1-1.24,2.48,4.07,4.07,0,0,1-2.75,1.11,2.68,2.68,0,0,1-2.17-1,33.06,33.06,0,0,0-12-9.76,36.19,36.19,0,0,0-16.16-3.6q-12.66,0-21.07,6.17A19.68,19.68,0,0,0,716,111.46a19.46,19.46,0,0,0,4.08,12.5,30.86,30.86,0,0,0,10.25,8.3,145.34,145.34,0,0,0,15.33,6.6,157.64,157.64,0,0,1,18.49,7.87,33.25,33.25,0,0,1,11.66,10.44q4.83,6.86,4.83,18.15a26.29,26.29,0,0,1-4.5,14.72,30.93,30.93,0,0,1-12.91,10.88,44.1,44.1,0,0,1-19.24,4Q731.67,204.94,722.51,200.57Z"/><path class="cls-1" d="M911.91,215.12a3,3,0,0,1,.75,2.14q0,3.26-4.67,6.6a40.26,40.26,0,0,1-11.57,5.47,44.19,44.19,0,0,1-13.08,2.14,50.64,50.64,0,0,1-15.49-2.05,105,105,0,0,1-14.5-6.16A85.54,85.54,0,0,0,841.53,218a35.49,35.49,0,0,0-11.5-1.71,14.1,14.1,0,0,0-4.24.6,42,42,0,0,0-4.59,1.79,12.6,12.6,0,0,1-4,1.37,3.19,3.19,0,0,1-2.34-1,3.57,3.57,0,0,1-1-2.57,3,3,0,0,1,1.84-2.91L840,204.77a51.79,51.79,0,0,1-26.9-8.91,54.33,54.33,0,0,1-18.33-21.65q-6.59-13.62-6.58-30.9,0-18,7.08-32A53.12,53.12,0,0,1,815,89.46a57.21,57.21,0,0,1,57.64,0,53.12,53.12,0,0,1,19.74,21.83q7.08,14,7.08,32a71.36,71.36,0,0,1-5.25,27.9,56.21,56.21,0,0,1-14.83,20.89,50.3,50.3,0,0,1-22.07,11.3l-20.49,6.85a36.28,36.28,0,0,1,9.58,2.22q4.41,1.71,10.58,4.79a119.73,119.73,0,0,0,13.49,5.83A39.77,39.77,0,0,0,883.34,225a30.56,30.56,0,0,0,10.58-1.63,55.64,55.64,0,0,0,8.58-4,13.42,13.42,0,0,0,3.16-2.57,11.57,11.57,0,0,1,2.08-1.71,3.9,3.9,0,0,1,2.09-.69A2.79,2.79,0,0,1,911.91,215.12ZM801.38,171.9a46.12,46.12,0,0,0,17.24,19.34,49.93,49.93,0,0,0,50.48,0,46.12,46.12,0,0,0,17.24-19.34q6.17-12.5,6.16-28.59t-6.16-28.59A46.21,46.21,0,0,0,869.1,95.37a49.93,49.93,0,0,0-50.48,0,46.21,46.21,0,0,0-17.24,19.35q-6.17,12.5-6.16,28.59T801.38,171.9Z"/><path class="cls-1" d="M979.89,197.41a3.3,3.3,0,0,1,1,2.39,3.25,3.25,0,0,1-1,2.49,3.31,3.31,0,0,1-2.33.94H916.43a3.11,3.11,0,0,1-2.42-1,3.5,3.5,0,0,1-.92-2.4v-113a3.52,3.52,0,0,1,6-2.4,3.34,3.34,0,0,1,1,2.4V196.38h57.47A3.12,3.12,0,0,1,979.89,197.41Z"/><circle class="cls-1" cx="501.02" cy="95.54" r="7.38"/><path class="cls-2" d="M62.11,143.25l-1.79,3.48c-1.23,2.3-2.27,4.69-3.35,7.06s-2.2,4.69-3.15,7.2c-.24.62-.51,1.23-.73,1.86l-.66,1.89c-.21.63-.44,1.26-.64,1.89l-.57,1.92a76,76,0,0,0-2.88,15.76,70.38,70.38,0,0,0,.73,16,67.3,67.3,0,0,0,8,22.56c.67,1.16,1.36,2.31,2.12,3.42.37.56.76,1.12,1.16,1.67s.79,1.06,1.31,1.67a2.49,2.49,0,0,0,3.86-3.15l-.06-.08c-.29-.37-.68-.9-1-1.38s-.68-1-1-1.51c-.65-1-1.26-2.09-1.85-3.16a61.83,61.83,0,0,1-6.78-20.9,64.1,64.1,0,0,1-.3-14.65,72.35,72.35,0,0,1,3-14.38l.56-1.75c.19-.59.42-1.16.63-1.74l.65-1.73c.21-.57.47-1.13.71-1.7.9-2.27,2.08-4.55,3.16-6.82s2.15-4.57,3.39-6.76l1.79-3.33c.6-1.1,1.16-2.23,1.84-3.29,1.3-2.15,2.57-4.31,3.9-6.44l4.18-6.25c1.5-2,3-4.06,4.47-6l2.35-3c.78-1,1.55-2,2.38-2.93,3.23-3.86,6.6-7.63,10-11.43l5.17-5.76,2.55-3,1.28-1.5,1.24-1.54A113.41,113.41,0,0,0,117,82.44l1.93-3.54c.22-.4.44-.79.65-1.19l.4,0a11.74,11.74,0,0,0,7.12-21.08,64.87,64.87,0,0,0,.44-21.22,66.59,66.59,0,0,0-4.23-15.74l.51.34a106.56,106.56,0,0,1,12.45,10.22A78.81,78.81,0,0,1,154.46,56a66.28,66.28,0,0,1,4.37,15.11l.32,2c.09.65.24,1.3.27,2l.33,4c0,.33.06.66.07,1v3a38.37,38.37,0,0,1-.06,4,115.4,115.4,0,0,1-6.7,32h0a2.5,2.5,0,0,0,4.58,2,97.18,97.18,0,0,0,10.47-33.3,75,75,0,0,0,0-17.91c-.09-.75-.15-1.5-.28-2.24l-.43-2.22c-.31-1.48-.51-3-1-4.43s-.78-2.92-1.22-4.37-1-2.85-1.54-4.27A78.82,78.82,0,0,0,155,36.36a86.79,86.79,0,0,0-11.79-13.49,100.73,100.73,0,0,0-14-10.91c-2.5-1.58-5-3.12-7.64-4.48-1.31-.68-2.63-1.35-4-2-.67-.32-1.37-.61-2-.92s-1.36-.56-2.19-.88l-.44-.17a4.26,4.26,0,0,0-4.64,6.88h0l.42.62.46.73c.3.49.61,1,.91,1.5.6,1,1.17,2.06,1.71,3.13,1.07,2.13,2.06,4.32,2.92,6.55a62.87,62.87,0,0,1,2.18,6.82,59.27,59.27,0,0,1,1.4,24.59,11.74,11.74,0,0,0-6.7,19.86c-.11.22-.23.44-.35.66l-1.69,3.24a104.8,104.8,0,0,1-8.3,12.19l-1.14,1.48-1.2,1.45-2.41,2.9-5,5.77c-3.38,3.85-6.78,7.79-10.06,11.85a172.15,172.15,0,0,0-17.49,26C63.27,140.91,62.71,142.09,62.11,143.25Zm52.54-77.86,0-.18c0-.13,0-.27.07-.39a1.17,1.17,0,0,1,0-.2c0-.12.07-.24.11-.36l.06-.18c0-.13.1-.24.15-.36s0-.11.08-.16a3.35,3.35,0,0,1,.21-.36.75.75,0,0,1,.07-.12q.13-.21.3-.42l0,0a5.3,5.3,0,0,1,.82-.82,5.33,5.33,0,0,1,8.49,2.74h0c0,.21.1.42.13.64,0,0,0,.07,0,.1,0,.23,0,.45,0,.69a4.3,4.3,0,0,1,0,.62,1.37,1.37,0,0,1,0,.19c0,.14,0,.28-.08.42l-.06.2a2.67,2.67,0,0,1-.13.4l-.06.17a3.32,3.32,0,0,1-.25.54h0a5.19,5.19,0,0,1-.31.5l-.1.14-.27.33-.13.14-.3.3a.69.69,0,0,1-.13.11,5.33,5.33,0,0,1-8.76-3.44v0q0-.3,0-.6A5.68,5.68,0,0,1,114.65,65.39Z"/><path class="cls-3" d="M201.2,240.53A2.5,2.5,0,0,0,198,242a72.33,72.33,0,0,1-11.94,21.14,64.84,64.84,0,0,1-18.64,15.39A83.73,83.73,0,0,1,144.49,287a118.83,118.83,0,0,1-16.63,2.32c3.59-2.56,7.34-5,11-7.64A160.32,160.32,0,0,0,156.06,268a72.73,72.73,0,0,0,7.66-8.28,52.24,52.24,0,0,0,6.17-9.83,40.06,40.06,0,0,0,2.41-6.41,11.74,11.74,0,0,0-.43-22.48c0-.12-.07-.24-.1-.36a57.42,57.42,0,0,0-2.08-5.49l-2.29-4.9c-.37-.76-.69-1.55-1-2.34s-.67-1.56-1-2.35a87.35,87.35,0,0,1-3.1-9.65,83.76,83.76,0,0,1-1.8-9.89,66.17,66.17,0,0,1,.74-19.92,62.38,62.38,0,0,1,2.6-9.62c.57-1.55,1.2-3.08,1.89-4.57.34-.74.7-1.47,1.07-2.18.19-.36.38-.7.57-1l.29-.49.23-.39.19-.31a4.44,4.44,0,0,0-5.17-6.51h0c-.41.13-.67.23-1,.34l-.86.34-1.66.71c-1.09.48-2.15,1-3.2,1.54q-3.13,1.62-6.09,3.54a67.7,67.7,0,0,0-10.92,8.84,57,57,0,0,0-4.69,5.26l-.77,1a11.61,11.61,0,0,0-7.45-.24,22.72,22.72,0,0,1-1.58-4.39,38.45,38.45,0,0,1-.24-15.39,77,77,0,0,1,4.36-15.36c1-2.5,2-5,3.22-7.39s2.43-4.86,3.74-7.08h0a2.41,2.41,0,0,0-3.06-3.62l-.43.23c-1,.58-1.94,1.14-2.88,1.73s-1.85,1.19-2.75,1.82c-1.8,1.25-3.57,2.54-5.28,3.92s-3.4,2.78-5,4.25-3.21,3-4.76,4.58A96,96,0,0,0,103,135.72a82.94,82.94,0,0,0-7.19,11.37,74.9,74.9,0,0,0-5.2,12.57,65.59,65.59,0,0,0-2.43,27.25c.28,2.28.68,4.54,1.17,6.78.12.56.26,1.11.4,1.67l.41,1.61.81,3.07c2.17,8.17,4.21,16.31,5.61,24.48a105.47,105.47,0,0,1,1.77,24.4,61.41,61.41,0,0,1-.89,7.68,11.74,11.74,0,0,0-8,19.95,56.29,56.29,0,0,1-4,5.21,66.4,66.4,0,0,1-7.72,7.45A198.08,198.08,0,0,1,50.22,271.9a131.73,131.73,0,0,1-12.75-11,97.83,97.83,0,0,1-10.8-12.63,76,76,0,0,1-8-14.27,70,70,0,0,1-4.55-15.57,84.42,84.42,0,0,1,1.4-32.52c.27-1.16.56-2.32.86-3.47a11.74,11.74,0,0,0,7.05-20.22c1.11-2.58,2.29-5.15,3.53-7.69s2.53-5,3.85-7.53l2-3.72,2.13-3.8a75.83,75.83,0,0,0,6.9-17.26,79.28,79.28,0,0,0,2.45-18.35,89.78,89.78,0,0,0-1.63-18.26,104.26,104.26,0,0,0-5-17.44q-1.39-3.65-3-7.18,3.19,1.09,6.27,2.48A59.12,59.12,0,0,1,55,72.26a40.89,40.89,0,0,1,10.16,12.8,39.83,39.83,0,0,1,4,16v0a2.49,2.49,0,0,0,5-.11,45.17,45.17,0,0,0-3.61-18.37,47.07,47.07,0,0,0-10.93-15.4A65.91,65.91,0,0,0,44.29,56.43a81.91,81.91,0,0,0-8.5-3.81c-1.45-.55-2.91-1.07-4.4-1.55l-2.26-.68L28,50.08c-.41-.1-.75-.19-1.26-.3h0A4.34,4.34,0,0,0,22,56.12l.16.3.45.81.47.88c.31.6.61,1.22.91,1.83.6,1.24,1.17,2.49,1.72,3.76,1.11,2.52,2.11,5.1,3,7.71a99.6,99.6,0,0,1,4.07,16,75.54,75.54,0,0,1-1.13,32.16,66.42,66.42,0,0,1-6,14.84l-2.11,3.76L21.47,142c-1.37,2.62-2.72,5.26-4,7.94q-2.14,4.53-4.07,9.17a11.72,11.72,0,0,0-6.6,19.67c-.41,1.64-.8,3.29-1.14,5-.61,2.95-1.12,5.94-1.5,8.95s-.61,6.05-.71,9.1A82.59,82.59,0,0,0,4.92,220.1a78.34,78.34,0,0,0,5.61,17.5A84.53,84.53,0,0,0,20,253.2a99.77,99.77,0,0,0,12.21,13.25c2.22,2,4.47,3.95,6.82,5.78,1.15.94,2.35,1.81,3.53,2.71s2.4,1.74,3.63,2.55a173,173,0,0,0,15.07,9.21c5.14,2.83,10.41,5.38,15.75,7.74l.18.08a2.29,2.29,0,0,0,2.35-.3h0a64.5,64.5,0,0,0,10.4-8.31,55.6,55.6,0,0,0,5.34-6.12A11.74,11.74,0,0,0,105,259a72,72,0,0,0,1.6-9.39,110.1,110.1,0,0,0-1-26.52c-1.31-8.66-3.22-17.12-5.28-25.45l-.8-3.11L99.15,193c-.11-.48-.24-1-.34-1.44q-.61-2.9-1-5.82a56.88,56.88,0,0,1-.1-11.74,66.68,66.68,0,0,1,6.52-22.68A99.47,99.47,0,0,1,117.57,131c1.31-1.59,2.66-3.14,4.07-4.66q1.88-2.05,3.84-4c-.43,1-.86,2-1.26,3.07a82.21,82.21,0,0,0-4.64,16.37,43.34,43.34,0,0,0,.33,17.41,29.47,29.47,0,0,0,2,5.61,11.71,11.71,0,0,0,1.86,19,52.34,52.34,0,0,0-.94,10.55A70.36,70.36,0,0,0,124.45,208a92.81,92.81,0,0,0,3.84,13.09c.79,2.12,1.64,4.21,2.57,6.28s1.89,4.07,3,6.15a2.49,2.49,0,0,0,4.4-2.34l0-.07c-.92-1.8-1.81-3.83-2.61-5.8s-1.54-4-2.21-6a87,87,0,0,1-3.14-12.4,54.82,54.82,0,0,1,.14-21.59,11.76,11.76,0,0,0,11-11.72,11.6,11.6,0,0,0-1.77-6.16l.79-.95a54.35,54.35,0,0,1,4.28-4.44,59.5,59.5,0,0,1,9.88-7.4l.17-.1a69.15,69.15,0,0,0-2.75,9.77,75.1,75.1,0,0,0-.92,22.78,82.44,82.44,0,0,0,2.07,11.18A97.17,97.17,0,0,0,156.76,209c.35.87.74,1.73,1.11,2.59s.74,1.72,1.17,2.56l2.33,4.78c.5,1.08.94,2.17,1.35,3.27a11.73,11.73,0,0,0,.91,20.71,30.82,30.82,0,0,1-1.32,3.54c-2.54,5.92-6.75,11.29-11.5,16.22A155.7,155.7,0,0,1,135,276.48l-8.42,6.65a108.38,108.38,0,0,0-8.33,7.15l-.15.14a2.45,2.45,0,0,0,1.86,4.2h0a130.38,130.38,0,0,0,25.55-2.79,88.44,88.44,0,0,0,24.29-8.93,69.91,69.91,0,0,0,20.06-16.57,76.88,76.88,0,0,0,12.78-22.6A2.5,2.5,0,0,0,201.2,240.53ZM10,170.73a5.34,5.34,0,0,1,10.53-1.28h0a5.33,5.33,0,0,1,.11.6v0c0,.22,0,.43,0,.64a3.86,3.86,0,0,1,0,.6,1.1,1.1,0,0,1,0,.18c0,.14-.05.27-.08.41s0,.12,0,.18l-.12.39-.06.16c0,.14-.12.28-.18.41l-.05.11A5.34,5.34,0,0,1,10,170.73Zm92.77,95.47h0a5.06,5.06,0,0,1,.32,1v0a4,4,0,0,1,.07.48.15.15,0,0,1,0,.07,5.07,5.07,0,0,1,0,.55,5.19,5.19,0,0,1-.06.8l0,.15a4.44,4.44,0,0,1-.18.74.61.61,0,0,1,0,.12,5.79,5.79,0,0,1-.29.68l0,0a4.77,4.77,0,0,1-.41.65l-.08.1a4.53,4.53,0,0,1-.51.57l0,0a4.92,4.92,0,0,1-.61.5h0a4.76,4.76,0,0,1-.69.4l-.08,0a4.11,4.11,0,0,1-.76.29h0a5.08,5.08,0,0,1-1.52.23A5.34,5.34,0,0,1,93,270.5h0a5.28,5.28,0,0,1-.33-1v0a3.7,3.7,0,0,1-.08-.48s0-.05,0-.07a5.44,5.44,0,0,1,0-.57,5.81,5.81,0,0,1,0-.72l0-.18a5.17,5.17,0,0,1,.16-.68h0a6.26,6.26,0,0,1,.25-.65l.08-.16a5,5,0,0,1,.34-.59h0a5.56,5.56,0,0,1,.42-.54l.12-.12a4.45,4.45,0,0,1,.49-.48h0c.18-.14.37-.27.56-.39l.14-.09a4.54,4.54,0,0,1,.62-.32h0a5.35,5.35,0,0,1,7,2.79Zm30.4-88.55h0a5.31,5.31,0,0,1-7.75-.9l0,0-.22-.33a.41.41,0,0,1-.05-.09,3.3,3.3,0,0,1-.18-.32l-.06-.12a2.88,2.88,0,0,1-.13-.31s0-.11-.07-.17l-.09-.28-.06-.23-.06-.25c0-.1,0-.2,0-.3l0-.21a4.41,4.41,0,0,1,0-.52,4.36,4.36,0,0,1,0-.51,1,1,0,0,1,0-.17c0-.11,0-.22,0-.32a1.6,1.6,0,0,1,0-.21,2.68,2.68,0,0,1,.07-.27l.06-.22.09-.24.09-.22.1-.21L125,171l.1-.16a4.78,4.78,0,0,1,.41-.59h0a5.34,5.34,0,1,1,7.61,7.42ZM163.61,234l0-.06c0-.13-.07-.27-.1-.4l0-.12c0-.14,0-.29-.07-.44s0-.06,0-.09a4.93,4.93,0,0,1,0-.55,4.36,4.36,0,0,1,0-.51,1,1,0,0,1,0-.17c0-.11,0-.22.05-.33s0-.13,0-.19.05-.2.08-.3l.06-.19c0-.1.07-.19.1-.28l.08-.18a2.39,2.39,0,0,1,.13-.28l.09-.16c0-.1.11-.19.16-.28l.09-.14c.09-.13.19-.26.29-.38a5.34,5.34,0,0,1,9.36,2.36s0,.05,0,.08l.06.42a4.71,4.71,0,0,1,0,.53,4.6,4.6,0,0,1-.08.84.28.28,0,0,1,0,.09,5.54,5.54,0,0,1-.21.8h0a5.34,5.34,0,0,1-10,.38v0A3.12,3.12,0,0,1,163.61,234Z"/></svg>